<svg width="1686" height="912" viewBox="0 0 1686 912" fill="none" xmlns="http://www.w3.org/2000/svg">
<path d="M842 867.692C842 863.747 838.966 860.561 835.172 860.105C834.262 855.25 832.29 850.85 829.559 846.602C831.986 843.568 831.986 839.168 829.103 836.436C827.738 835.071 825.766 834.312 823.793 834.312C821.972 834.312 820.303 834.919 818.938 836.133C814.841 833.402 810.29 831.581 805.434 830.519C805.131 826.726 801.945 823.692 798 823.692C794.055 823.692 790.869 826.726 790.414 830.519C785.559 831.43 781.159 833.402 776.91 836.133C773.876 833.705 769.476 833.705 766.745 836.588C764.014 839.319 763.862 843.871 766.29 846.754C763.559 850.85 761.738 855.402 760.676 860.257C757.034 860.561 754 863.747 754 867.692C754 871.636 757.034 874.823 760.828 875.278C761.738 880.133 763.71 884.533 766.441 888.781C764.014 891.816 764.014 896.216 766.897 898.947C768.414 900.464 770.386 901.223 772.207 901.223C773.876 901.223 775.697 900.616 777.062 899.402C781.159 902.133 785.71 903.954 790.566 905.016C791.021 908.809 794.207 911.843 798.152 911.843C802.097 911.843 805.283 908.809 805.738 905.016C810.593 904.105 814.993 902.133 819.241 899.402C820.607 900.616 822.276 901.223 824.097 901.223C826.069 901.223 828.041 900.464 829.407 898.947C832.138 896.216 832.29 891.664 829.862 888.781C832.593 884.685 834.414 880.133 835.476 875.278C838.966 874.823 842 871.636 842 867.692ZM823.793 885.899C822.276 885.899 820.91 886.354 819.545 887.112L816.207 883.774C819.697 879.83 821.821 874.823 822.276 869.209H827.131C827.738 871.94 829.71 874.064 832.29 874.823C831.379 879.071 829.71 883.016 827.434 886.657C826.221 886.202 825.007 885.899 823.793 885.899ZM799.517 896.671V891.816C805.131 891.512 810.138 889.236 814.083 885.747L817.572 889.236C816.055 891.512 815.903 894.395 817.117 896.823C813.476 899.25 809.531 900.919 805.283 901.678C804.372 899.25 802.248 897.278 799.517 896.671ZM790.869 901.83C786.621 900.919 782.676 899.25 779.034 896.974C780.248 894.547 780.097 891.664 778.579 889.388L782.069 885.899C786.014 889.388 791.021 891.512 796.634 891.968V896.823C793.752 897.278 791.628 899.25 790.869 901.83ZM768.717 886.809C766.29 883.168 764.621 879.223 763.862 874.974C766.441 874.216 768.414 871.94 769.021 869.361H773.876C774.179 874.974 776.455 879.981 779.945 883.926L776.455 887.416C774.179 885.595 771.145 885.595 768.717 886.809ZM772.207 849.485C773.724 849.485 775.09 849.03 776.455 848.271L779.945 851.761C776.455 855.705 774.331 860.712 773.876 866.326H769.021C768.414 863.595 766.441 861.471 763.862 860.712C764.772 856.464 766.441 852.519 768.717 848.878C769.931 849.181 770.993 849.485 772.207 849.485ZM796.483 838.712V843.568C790.869 843.871 785.862 846.147 781.917 849.636L778.428 846.147C779.945 843.871 780.097 840.988 778.883 838.561C782.524 836.133 786.469 834.464 790.717 833.705C791.628 836.133 793.752 838.105 796.483 838.712ZM805.131 833.554C809.379 834.464 813.324 836.133 816.966 838.409C815.752 840.836 815.903 843.719 817.421 845.995L814.083 849.485C810.138 845.995 805.131 843.871 799.517 843.416V838.561C802.248 838.105 804.372 836.133 805.131 833.554ZM827.283 848.574C829.71 852.216 831.379 856.161 832.138 860.409C829.559 861.168 827.586 863.443 826.979 866.023H822.124C821.821 860.409 819.545 855.402 816.055 851.457L819.545 847.968C820.91 849.03 822.276 849.485 823.793 849.485C825.007 849.485 826.221 849.181 827.283 848.574ZM798 888.933C796.331 888.933 794.207 885.292 792.993 878.919C794.662 878.464 796.331 878.312 798 878.312C799.669 878.312 801.338 878.616 803.007 878.919C801.793 885.292 799.669 888.933 798 888.933ZM798 875.278C796.179 875.278 794.207 875.581 792.538 875.885C792.234 873.912 792.083 871.636 792.083 869.209H804.221C804.221 871.636 803.917 873.912 803.766 875.885C801.793 875.581 799.821 875.278 798 875.278ZM791.931 866.174C791.931 863.747 792.234 861.471 792.386 859.499C794.207 859.954 796.028 860.105 797.848 860.105C799.669 860.105 801.641 859.802 803.31 859.499C803.614 861.471 803.766 863.747 803.766 866.174H791.931ZM798 857.071C796.331 857.071 794.662 856.768 792.993 856.464C794.207 850.092 796.331 846.45 798 846.45C799.669 846.45 801.793 850.092 803.007 856.464C801.338 856.768 799.669 857.071 798 857.071ZM803.007 847.057C806.345 847.816 809.379 849.485 811.959 851.761C810.138 853.43 808.166 854.643 805.89 855.554C805.283 852.216 804.372 849.181 803.007 847.057ZM790.11 855.554C787.986 854.643 785.862 853.43 784.041 851.761C786.621 849.485 789.655 847.968 792.993 847.057C791.628 849.181 790.717 852.216 790.11 855.554ZM781.917 853.885C784.193 855.857 786.772 857.526 789.503 858.588C789.2 861.016 788.897 863.595 788.897 866.174H776.759C777.214 861.471 779.034 857.223 781.917 853.885ZM788.897 869.209C788.897 871.788 789.2 874.368 789.503 876.795C786.772 877.857 784.193 879.374 781.917 881.499C779.034 878.161 777.214 873.912 776.91 869.209H788.897ZM790.11 879.83C790.717 883.168 791.779 886.202 792.993 888.326C789.655 887.568 786.621 885.899 784.041 883.623C785.862 881.954 787.834 880.74 790.11 879.83ZM805.89 879.83C808.014 880.74 810.138 881.954 811.959 883.623C809.379 885.899 806.345 887.416 803.007 888.326C804.372 886.202 805.283 883.168 805.89 879.83ZM814.083 881.499C811.807 879.526 809.228 877.857 806.497 876.795C806.8 874.368 807.103 871.788 807.103 869.209H819.241C818.786 873.912 816.966 878.161 814.083 881.499ZM807.103 866.174C807.103 863.595 806.8 861.016 806.497 858.588C809.228 857.526 811.807 856.009 814.083 853.885C816.966 857.223 818.786 861.471 819.09 866.174H807.103ZM838.966 867.692C838.966 870.271 836.993 872.243 834.414 872.243C831.834 872.243 829.862 870.271 829.862 867.692C829.862 865.112 831.834 863.14 834.414 863.14C836.993 863.14 838.966 865.112 838.966 867.692ZM826.979 838.712C827.89 839.623 828.345 840.685 828.345 841.899C828.345 843.112 827.89 844.326 826.979 845.085C825.31 846.754 822.276 846.754 820.607 845.085C819.697 844.326 819.241 843.112 819.241 841.899C819.241 840.685 819.697 839.471 820.607 838.712C821.517 837.802 822.579 837.347 823.793 837.347C825.007 837.347 826.221 837.802 826.979 838.712ZM798 826.726C800.579 826.726 802.552 828.699 802.552 831.278C802.552 833.857 800.579 835.83 798 835.83C795.421 835.83 793.448 833.857 793.448 831.278C793.448 828.699 795.421 826.726 798 826.726ZM769.021 838.712C769.931 837.802 771.145 837.347 772.207 837.347C773.421 837.347 774.483 837.802 775.393 838.712C777.214 840.533 777.214 843.416 775.393 845.085C773.572 846.905 770.69 846.905 769.021 845.085C767.2 843.416 767.2 840.381 769.021 838.712ZM757.034 867.692C757.034 865.112 759.007 863.14 761.586 863.14C764.166 863.14 766.138 865.112 766.138 867.692C766.138 870.271 764.166 872.243 761.586 872.243C759.007 872.243 757.034 870.271 757.034 867.692ZM769.021 896.671C767.2 894.85 767.2 891.968 769.021 890.299C770.841 888.478 773.724 888.478 775.393 890.299C777.214 892.119 777.214 895.002 775.393 896.671C773.724 898.492 770.69 898.492 769.021 896.671ZM798 908.657C795.421 908.657 793.448 906.685 793.448 904.105C793.448 901.526 795.421 899.554 798 899.554C800.579 899.554 802.552 901.526 802.552 904.105C802.552 906.685 800.579 908.657 798 908.657ZM826.979 896.671C825.31 898.34 822.276 898.34 820.607 896.671C819.697 895.912 819.241 894.699 819.241 893.485C819.241 892.271 819.697 891.057 820.607 890.299C821.517 889.388 822.579 888.933 823.793 888.933C825.007 888.933 826.221 889.388 826.979 890.299C827.89 891.209 828.345 892.271 828.345 893.485C828.345 894.699 827.89 895.912 826.979 896.671Z" fill="#101010"/>
<line y1="-2" x2="617.713" y2="-2" transform="matrix(0.961152 0.276019 -0.251268 0.967917 945.295 373.514)" stroke="#62AA8B" stroke-width="4" stroke-dasharray="8 8"/>
<line y1="-2" x2="619.866" y2="-2" transform="matrix(0.924841 0.380354 -0.345815 0.938303 955.514 340.88)" stroke="#62AA8B" stroke-width="4" stroke-dasharray="8 8"/>
<line y1="-2" x2="622.737" y2="-2" transform="matrix(0.877672 0.479262 -0.437625 0.899158 968.874 309.537)" stroke="#62AA8B" stroke-width="4" stroke-dasharray="8 8"/>
<line y1="-2" x2="626.189" y2="-2" transform="matrix(0.8206 0.571503 -0.525875 0.850562 985.228 279.83)" stroke="#62AA8B" stroke-width="4" stroke-dasharray="8 8"/>
<line y1="-2" x2="630.065" y2="-2" transform="matrix(0.754705 0.656064 -0.609676 0.792651 1004.4 252.083)" stroke="#62AA8B" stroke-width="4" stroke-dasharray="8 8"/>
<line y1="-2" x2="634.189" y2="-2" transform="matrix(0.681132 0.732161 -0.688063 0.725651 1026.17 226.6)" stroke="#62AA8B" stroke-width="4" stroke-dasharray="8 8"/>
<line y1="-2" x2="638.378" y2="-2" transform="matrix(0.601034 0.799223 -0.760011 0.64991 1050.31 203.661)" stroke="#62AA8B" stroke-width="4" stroke-dasharray="8 8"/>
<line y1="-2" x2="642.448" y2="-2" transform="matrix(0.515533 0.85687 -0.824449 0.565937 1076.55 183.517)" stroke="#62AA8B" stroke-width="4" stroke-dasharray="8 8"/>
<line y1="-2" x2="646.227" y2="-2" transform="matrix(0.425688 0.90487 -0.880295 0.474427 1104.61 166.389)" stroke="#62AA8B" stroke-width="4" stroke-dasharray="8 8"/>
<line y1="-2" x2="649.555" y2="-2" transform="matrix(0.332481 0.94311 -0.926501 0.376292 1134.17 152.464)" stroke="#62AA8B" stroke-width="4" stroke-dasharray="8 8"/>
<line y1="-2" x2="652.294" y2="-2" transform="matrix(0.236813 0.971555 -0.96211 0.27266 1164.92 141.894)" stroke="#62AA8B" stroke-width="4" stroke-dasharray="8 8"/>
<line y1="-2" x2="654.334" y2="-2" transform="matrix(0.139511 0.99022 -0.986315 0.164871 1196.51 134.797)" stroke="#62AA8B" stroke-width="4" stroke-dasharray="8 8"/>
<line y1="-2" x2="655.591" y2="-2" transform="matrix(0.0413398 0.999145 -0.998517 0.0544431 1228.6 131.249)" stroke="#62AA8B" stroke-width="4" stroke-dasharray="8 8"/>
<line x1="1262.84" y1="131.403" x2="1225.46" y2="786.354" stroke="#62AA8B" stroke-width="4" stroke-dasharray="8 8"/>
<line y1="-2" x2="655.591" y2="-2" transform="matrix(-0.15475 0.987954 -0.985839 -0.167696 1292.88 134.917)" stroke="#62AA8B" stroke-width="4" stroke-dasharray="8 8"/>
<line y1="-2" x2="654.334" y2="-2" transform="matrix(-0.251268 0.967917 -0.961152 -0.276019 1324.36 142.094)" stroke="#62AA8B" stroke-width="4" stroke-dasharray="8 8"/>
<line y1="-2" x2="652.294" y2="-2" transform="matrix(-0.345815 0.938303 -0.924841 -0.380354 1354.94 152.74)" stroke="#62AA8B" stroke-width="4" stroke-dasharray="8 8"/>
<line y1="-2" x2="649.555" y2="-2" transform="matrix(-0.437625 0.899158 -0.877672 -0.479262 1384.28 166.738)" stroke="#62AA8B" stroke-width="4" stroke-dasharray="8 8"/>
<line y1="-2" x2="646.227" y2="-2" transform="matrix(-0.525875 0.850562 -0.8206 -0.571503 1412.07 183.937)" stroke="#62AA8B" stroke-width="4" stroke-dasharray="8 8"/>
<line y1="-2" x2="642.448" y2="-2" transform="matrix(-0.609676 0.792651 -0.754705 -0.656064 1438 204.146)" stroke="#62AA8B" stroke-width="4" stroke-dasharray="8 8"/>
<line y1="-2" x2="638.378" y2="-2" transform="matrix(-0.688063 0.725651 -0.681132 -0.732161 1461.78 227.145)" stroke="#62AA8B" stroke-width="4" stroke-dasharray="8 8"/>
<line y1="-2" x2="634.189" y2="-2" transform="matrix(-0.760011 0.64991 -0.601034 -0.799223 1483.15 252.681)" stroke="#62AA8B" stroke-width="4" stroke-dasharray="8 8"/>
<line y1="-2" x2="630.065" y2="-2" transform="matrix(-0.824449 0.565937 -0.515533 -0.85687 1501.88 280.476)" stroke="#62AA8B" stroke-width="4" stroke-dasharray="8 8"/>
<line y1="-2" x2="626.189" y2="-2" transform="matrix(-0.880295 0.474427 -0.425688 -0.90487 1517.77 310.224)" stroke="#62AA8B" stroke-width="4" stroke-dasharray="8 8"/>
<line y1="-2" x2="622.737" y2="-2" transform="matrix(-0.926501 0.376292 -0.332481 -0.94311 1530.64 341.599)" stroke="#62AA8B" stroke-width="4" stroke-dasharray="8 8"/>
<line y1="-2" x2="619.866" y2="-2" transform="matrix(-0.96211 0.27266 -0.236813 -0.971555 1540.34 374.258)" stroke="#62AA8B" stroke-width="4" stroke-dasharray="8 8"/>
<line y1="-2" x2="617.713" y2="-2" transform="matrix(-0.986315 0.164871 -0.139511 -0.99022 1546.78 407.843)" stroke="#62AA8B" stroke-width="4" stroke-dasharray="8 8"/>
<line y1="-2" x2="616.378" y2="-2" transform="matrix(-0.998517 0.0544431 -0.0413398 -0.999145 1549.89 441.986)" stroke="#62AA8B" stroke-width="4" stroke-dasharray="8 8"/>
<line x1="1549.5" y1="478.309" x2="934.576" y2="443.213" stroke="#62AA8B" stroke-width="4" stroke-dasharray="8 8"/>
<line y1="-2" x2="616.378" y2="-2" transform="matrix(-0.985839 -0.167696 0.15475 -0.987954 1545.98 510.447)" stroke="#62AA8B" stroke-width="4" stroke-dasharray="8 8"/>
<line y1="-2" x2="617.713" y2="-2" transform="matrix(-0.961152 -0.276019 0.251268 -0.967917 1539.01 544.015)" stroke="#62AA8B" stroke-width="4" stroke-dasharray="8 8"/>
<line y1="-2" x2="619.866" y2="-2" transform="matrix(-0.924841 -0.380354 0.345815 -0.938303 1528.79 576.649)" stroke="#62AA8B" stroke-width="4" stroke-dasharray="8 8"/>
<line y1="-2" x2="622.737" y2="-2" transform="matrix(-0.877672 -0.479262 0.437625 -0.899158 1515.43 607.991)" stroke="#62AA8B" stroke-width="4" stroke-dasharray="8 8"/>
<line y1="-2" x2="626.189" y2="-2" transform="matrix(-0.8206 -0.571503 0.525875 -0.850562 1499.08 637.699)" stroke="#62AA8B" stroke-width="4" stroke-dasharray="8 8"/>
<line y1="-2" x2="630.065" y2="-2" transform="matrix(-0.754705 -0.656064 0.609676 -0.792651 1479.91 665.446)" stroke="#62AA8B" stroke-width="4" stroke-dasharray="8 8"/>
<line y1="-2" x2="634.189" y2="-2" transform="matrix(-0.681132 -0.732161 0.688063 -0.725651 1458.14 690.929)" stroke="#62AA8B" stroke-width="4" stroke-dasharray="8 8"/>
<line y1="-2" x2="638.378" y2="-2" transform="matrix(-0.601034 -0.799223 0.760011 -0.64991 1434 713.867)" stroke="#62AA8B" stroke-width="4" stroke-dasharray="8 8"/>
<line y1="-2" x2="642.448" y2="-2" transform="matrix(-0.515533 -0.85687 0.824449 -0.565937 1407.75 734.012)" stroke="#62AA8B" stroke-width="4" stroke-dasharray="8 8"/>
<line y1="-2" x2="646.227" y2="-2" transform="matrix(-0.425688 -0.90487 0.880295 -0.474427 1379.7 751.14)" stroke="#62AA8B" stroke-width="4" stroke-dasharray="8 8"/>
<line y1="-2" x2="649.555" y2="-2" transform="matrix(-0.332481 -0.94311 0.926501 -0.376292 1350.14 765.065)" stroke="#62AA8B" stroke-width="4" stroke-dasharray="8 8"/>
<line y1="-2" x2="652.294" y2="-2" transform="matrix(-0.236813 -0.971555 0.96211 -0.27266 1319.39 775.634)" stroke="#62AA8B" stroke-width="4" stroke-dasharray="8 8"/>
<line y1="-2" x2="654.334" y2="-2" transform="matrix(-0.139511 -0.99022 0.986315 -0.164871 1287.8 782.732)" stroke="#62AA8B" stroke-width="4" stroke-dasharray="8 8"/>
<line y1="-2" x2="655.591" y2="-2" transform="matrix(-0.0413398 -0.999145 0.998517 -0.0544431 1255.7 786.28)" stroke="#62AA8B" stroke-width="4" stroke-dasharray="8 8"/>
<line x1="1221.47" y1="786.125" x2="1258.85" y2="131.175" stroke="#62AA8B" stroke-width="4" stroke-dasharray="8 8"/>
<line y1="-2" x2="655.591" y2="-2" transform="matrix(0.154749 -0.987954 0.985839 0.167696 1191.43 782.611)" stroke="#62AA8B" stroke-width="4" stroke-dasharray="8 8"/>
<line y1="-2" x2="654.334" y2="-2" transform="matrix(0.251268 -0.967917 0.961152 0.276019 1159.95 775.435)" stroke="#62AA8B" stroke-width="4" stroke-dasharray="8 8"/>
<line y1="-2" x2="652.294" y2="-2" transform="matrix(0.345815 -0.938303 0.924841 0.380354 1129.37 764.789)" stroke="#62AA8B" stroke-width="4" stroke-dasharray="8 8"/>
<line y1="-2" x2="649.555" y2="-2" transform="matrix(0.437625 -0.899158 0.877672 0.479262 1100.02 750.79)" stroke="#62AA8B" stroke-width="4" stroke-dasharray="8 8"/>
<line y1="-2" x2="646.227" y2="-2" transform="matrix(0.525875 -0.850562 0.8206 0.571503 1072.24 733.592)" stroke="#62AA8B" stroke-width="4" stroke-dasharray="8 8"/>
<line y1="-2" x2="642.448" y2="-2" transform="matrix(0.609676 -0.792651 0.754705 0.656064 1046.31 713.383)" stroke="#62AA8B" stroke-width="4" stroke-dasharray="8 8"/>
<line y1="-2" x2="638.378" y2="-2" transform="matrix(0.688063 -0.725651 0.681132 0.732161 1022.53 690.384)" stroke="#62AA8B" stroke-width="4" stroke-dasharray="8 8"/>
<line y1="-2" x2="634.189" y2="-2" transform="matrix(0.760011 -0.64991 0.601034 0.799223 1001.16 664.847)" stroke="#62AA8B" stroke-width="4" stroke-dasharray="8 8"/>
<line y1="-2" x2="630.065" y2="-2" transform="matrix(0.824449 -0.565937 0.515533 0.85687 982.424 637.053)" stroke="#62AA8B" stroke-width="4" stroke-dasharray="8 8"/>
<line y1="-2" x2="626.189" y2="-2" transform="matrix(0.880295 -0.474428 0.425688 0.90487 966.537 607.305)" stroke="#62AA8B" stroke-width="4" stroke-dasharray="8 8"/>
<line y1="-2" x2="622.737" y2="-2" transform="matrix(0.926501 -0.376292 0.332481 0.94311 953.67 575.93)" stroke="#62AA8B" stroke-width="4" stroke-dasharray="8 8"/>
<line y1="-2" x2="619.866" y2="-2" transform="matrix(0.96211 -0.27266 0.236813 0.971555 943.963 543.271)" stroke="#62AA8B" stroke-width="4" stroke-dasharray="8 8"/>
<line y1="-2" x2="617.713" y2="-2" transform="matrix(0.986315 -0.164871 0.139512 0.99022 937.523 509.686)" stroke="#62AA8B" stroke-width="4" stroke-dasharray="8 8"/>
<line y1="-2" x2="616.378" y2="-2" transform="matrix(0.998517 -0.0544432 0.0413399 0.999145 934.421 475.543)" stroke="#62AA8B" stroke-width="4" stroke-dasharray="8 8"/>
<line x1="934.804" y1="439.22" x2="1549.73" y2="474.315" stroke="#62AA8B" stroke-width="4" stroke-dasharray="8 8"/>
<line y1="-2" x2="616.378" y2="-2" transform="matrix(0.985839 0.167696 -0.15475 0.987954 938.329 407.082)" stroke="#62AA8B" stroke-width="4" stroke-dasharray="8 8"/>
<line y1="-2" x2="606.291" y2="-2" transform="matrix(0.971224 0.238167 -0.181192 0.983448 956.578 330.232)" stroke="#FF0000" stroke-width="4" stroke-dasharray="8 8"/>
<line y1="-2" x2="611.44" y2="-2" transform="matrix(0.936374 0.351005 -0.27109 0.962554 964.732 295.123)" stroke="#FF0000" stroke-width="4" stroke-dasharray="8 8"/>
<line y1="-2" x2="618.262" y2="-2" transform="matrix(0.889516 0.456904 -0.360038 0.932938 976.023 261.188)" stroke="#FF0000" stroke-width="4" stroke-dasharray="8 8"/>
<line y1="-2" x2="626.412" y2="-2" transform="matrix(0.832275 0.554363 -0.447528 0.89427 990.327 228.802)" stroke="#FF0000" stroke-width="4" stroke-dasharray="8 8"/>
<line y1="-2" x2="635.49" y2="-2" transform="matrix(0.766383 0.642384 -0.532891 0.846184 1007.49 198.318)" stroke="#FF0000" stroke-width="4" stroke-dasharray="8 8"/>
<line y1="-2" x2="645.067" y2="-2" transform="matrix(0.69353 0.720428 -0.615256 0.788327 1027.31 170.07)" stroke="#FF0000" stroke-width="4" stroke-dasharray="8 8"/>
<line y1="-2" x2="654.714" y2="-2" transform="matrix(0.615256 0.788327 -0.69353 0.720428 1049.59 144.368)" stroke="#FF0000" stroke-width="4" stroke-dasharray="8 8"/>
<line y1="-2" x2="664.014" y2="-2" transform="matrix(0.532891 0.846184 -0.766383 0.642384 1074.08 121.493)" stroke="#FF0000" stroke-width="4" stroke-dasharray="8 8"/>
<line y1="-2" x2="672.584" y2="-2" transform="matrix(0.447528 0.89427 -0.832275 0.554363 1100.5 101.696)" stroke="#FF0000" stroke-width="4" stroke-dasharray="8 8"/>
<line y1="-2" x2="680.083" y2="-2" transform="matrix(0.360038 0.932938 -0.889516 0.456904 1128.57 85.1943)" stroke="#FF0000" stroke-width="4" stroke-dasharray="8 8"/>
<line y1="-2" x2="686.224" y2="-2" transform="matrix(0.27109 0.962554 -0.936374 0.351005 1157.99 72.1682)" stroke="#FF0000" stroke-width="4" stroke-dasharray="8 8"/>
<line y1="-2" x2="690.776" y2="-2" transform="matrix(0.181191 0.983448 -0.971224 0.238167 1188.42 62.7606)" stroke="#FF0000" stroke-width="4" stroke-dasharray="8 8"/>
<line y1="-2" x2="693.575" y2="-2" transform="matrix(0.0907271 0.995876 -0.992728 0.120375 1219.54 57.0745)" stroke="#FF0000" stroke-width="4" stroke-dasharray="8 8"/>
<line x1="1253" y1="55.1721" x2="1253" y2="749.692" stroke="#FF0000" stroke-width="4" stroke-dasharray="8 8"/>
<line y1="-2" x2="693.575" y2="-2" transform="matrix(-0.0907273 0.995876 -0.992728 -0.120376 1282.46 57.0745)" stroke="#FF0000" stroke-width="4" stroke-dasharray="8 8"/>
<line y1="-2" x2="690.776" y2="-2" transform="matrix(-0.181192 0.983448 -0.971224 -0.238167 1313.58 62.7606)" stroke="#FF0000" stroke-width="4" stroke-dasharray="8 8"/>
<line y1="-2" x2="686.224" y2="-2" transform="matrix(-0.27109 0.962554 -0.936374 -0.351005 1344.01 72.1683)" stroke="#FF0000" stroke-width="4" stroke-dasharray="8 8"/>
<line y1="-2" x2="680.083" y2="-2" transform="matrix(-0.360038 0.932938 -0.889516 -0.456904 1373.43 85.1943)" stroke="#FF0000" stroke-width="4" stroke-dasharray="8 8"/>
<line y1="-2" x2="672.584" y2="-2" transform="matrix(-0.447528 0.89427 -0.832275 -0.554363 1401.5 101.696)" stroke="#FF0000" stroke-width="4" stroke-dasharray="8 8"/>
<line y1="-2" x2="664.014" y2="-2" transform="matrix(-0.532891 0.846184 -0.766383 -0.642384 1427.92 121.493)" stroke="#FF0000" stroke-width="4" stroke-dasharray="8 8"/>
<line y1="-2" x2="654.714" y2="-2" transform="matrix(-0.615256 0.788327 -0.69353 -0.720428 1452.41 144.368)" stroke="#FF0000" stroke-width="4" stroke-dasharray="8 8"/>
<line y1="-2" x2="645.067" y2="-2" transform="matrix(-0.69353 0.720428 -0.615256 -0.788327 1474.69 170.07)" stroke="#FF0000" stroke-width="4" stroke-dasharray="8 8"/>
<line y1="-2" x2="635.49" y2="-2" transform="matrix(-0.766383 0.642384 -0.532891 -0.846184 1494.51 198.318)" stroke="#FF0000" stroke-width="4" stroke-dasharray="8 8"/>
<line y1="-2" x2="626.412" y2="-2" transform="matrix(-0.832275 0.554363 -0.447528 -0.89427 1511.67 228.802)" stroke="#FF0000" stroke-width="4" stroke-dasharray="8 8"/>
<line y1="-2" x2="618.262" y2="-2" transform="matrix(-0.889516 0.456904 -0.360038 -0.932938 1525.98 261.189)" stroke="#FF0000" stroke-width="4" stroke-dasharray="8 8"/>
<line y1="-2" x2="611.44" y2="-2" transform="matrix(-0.936374 0.351005 -0.27109 -0.962554 1537.27 295.123)" stroke="#FF0000" stroke-width="4" stroke-dasharray="8 8"/>
<line y1="-2" x2="606.291" y2="-2" transform="matrix(-0.971224 0.238167 -0.181191 -0.983448 1545.42 330.233)" stroke="#FF0000" stroke-width="4" stroke-dasharray="8 8"/>
<line y1="-2" x2="603.088" y2="-2" transform="matrix(-0.992728 0.120375 -0.0907271 -0.995876 1550.35 366.133)" stroke="#FF0000" stroke-width="4" stroke-dasharray="8 8"/>
<line x1="1552" y1="404.432" x2="950" y2="404.432" stroke="#FF0000" stroke-width="4" stroke-dasharray="8 8"/>
<line y1="-2" x2="603.088" y2="-2" transform="matrix(-0.992728 -0.120376 0.0907273 -0.995876 1550.35 438.73)" stroke="#FF0000" stroke-width="4" stroke-dasharray="8 8"/>
<line y1="-2" x2="606.291" y2="-2" transform="matrix(-0.971224 -0.238167 0.181192 -0.983448 1545.42 474.631)" stroke="#FF0000" stroke-width="4" stroke-dasharray="8 8"/>
<line y1="-2" x2="611.44" y2="-2" transform="matrix(-0.936374 -0.351005 0.27109 -0.962554 1537.27 509.741)" stroke="#FF0000" stroke-width="4" stroke-dasharray="8 8"/>
<line y1="-2" x2="618.262" y2="-2" transform="matrix(-0.889516 -0.456904 0.360038 -0.932938 1525.98 543.675)" stroke="#FF0000" stroke-width="4" stroke-dasharray="8 8"/>
<line y1="-2" x2="626.412" y2="-2" transform="matrix(-0.832275 -0.554363 0.447528 -0.89427 1511.67 576.062)" stroke="#FF0000" stroke-width="4" stroke-dasharray="8 8"/>
<line y1="-2" x2="635.49" y2="-2" transform="matrix(-0.766383 -0.642384 0.532891 -0.846184 1494.51 606.546)" stroke="#FF0000" stroke-width="4" stroke-dasharray="8 8"/>
<line y1="-2" x2="645.067" y2="-2" transform="matrix(-0.69353 -0.720428 0.615256 -0.788327 1474.69 634.794)" stroke="#FF0000" stroke-width="4" stroke-dasharray="8 8"/>
<line y1="-2" x2="654.714" y2="-2" transform="matrix(-0.615256 -0.788327 0.69353 -0.720428 1452.41 660.496)" stroke="#FF0000" stroke-width="4" stroke-dasharray="8 8"/>
<line y1="-2" x2="664.014" y2="-2" transform="matrix(-0.532891 -0.846184 0.766383 -0.642384 1427.92 683.371)" stroke="#FF0000" stroke-width="4" stroke-dasharray="8 8"/>
<line y1="-2" x2="672.584" y2="-2" transform="matrix(-0.447528 -0.89427 0.832275 -0.554363 1401.5 703.167)" stroke="#FF0000" stroke-width="4" stroke-dasharray="8 8"/>
<line y1="-2" x2="680.083" y2="-2" transform="matrix(-0.360038 -0.932938 0.889516 -0.456904 1373.43 719.669)" stroke="#FF0000" stroke-width="4" stroke-dasharray="8 8"/>
<line y1="-2" x2="686.224" y2="-2" transform="matrix(-0.27109 -0.962554 0.936374 -0.351005 1344.01 732.695)" stroke="#FF0000" stroke-width="4" stroke-dasharray="8 8"/>
<line y1="-2" x2="690.776" y2="-2" transform="matrix(-0.181192 -0.983448 0.971224 -0.238167 1313.58 742.103)" stroke="#FF0000" stroke-width="4" stroke-dasharray="8 8"/>
<line y1="-2" x2="693.575" y2="-2" transform="matrix(-0.0907271 -0.995876 0.992728 -0.120376 1282.46 747.789)" stroke="#FF0000" stroke-width="4" stroke-dasharray="8 8"/>
<line x1="1249" y1="749.691" x2="1249" y2="55.172" stroke="#FF0000" stroke-width="4" stroke-dasharray="8 8"/>
<line y1="-2" x2="693.575" y2="-2" transform="matrix(0.0907272 -0.995876 0.992728 0.120376 1219.54 747.789)" stroke="#FF0000" stroke-width="4" stroke-dasharray="8 8"/>
<line y1="-2" x2="690.776" y2="-2" transform="matrix(0.181192 -0.983448 0.971224 0.238167 1188.42 742.103)" stroke="#FF0000" stroke-width="4" stroke-dasharray="8 8"/>
<line y1="-2" x2="686.224" y2="-2" transform="matrix(0.27109 -0.962554 0.936374 0.351005 1157.99 732.695)" stroke="#FF0000" stroke-width="4" stroke-dasharray="8 8"/>
<line y1="-2" x2="680.083" y2="-2" transform="matrix(0.360038 -0.932938 0.889516 0.456904 1128.57 719.669)" stroke="#FF0000" stroke-width="4" stroke-dasharray="8 8"/>
<line y1="-2" x2="672.584" y2="-2" transform="matrix(0.447528 -0.89427 0.832275 0.554363 1100.5 703.168)" stroke="#FF0000" stroke-width="4" stroke-dasharray="8 8"/>
<line y1="-2" x2="664.014" y2="-2" transform="matrix(0.532891 -0.846184 0.766383 0.642384 1074.08 683.371)" stroke="#FF0000" stroke-width="4" stroke-dasharray="8 8"/>
<line y1="-2" x2="654.714" y2="-2" transform="matrix(0.615256 -0.788327 0.69353 0.720428 1049.59 660.496)" stroke="#FF0000" stroke-width="4" stroke-dasharray="8 8"/>
<line y1="-2" x2="645.067" y2="-2" transform="matrix(0.69353 -0.720428 0.615256 0.788327 1027.31 634.794)" stroke="#FF0000" stroke-width="4" stroke-dasharray="8 8"/>
<line y1="-2" x2="635.49" y2="-2" transform="matrix(0.766383 -0.642384 0.532891 0.846184 1007.49 606.546)" stroke="#FF0000" stroke-width="4" stroke-dasharray="8 8"/>
<line y1="-2" x2="626.412" y2="-2" transform="matrix(0.832275 -0.554363 0.447528 0.89427 990.326 576.062)" stroke="#FF0000" stroke-width="4" stroke-dasharray="8 8"/>
<line y1="-2" x2="618.262" y2="-2" transform="matrix(0.889516 -0.456904 0.360038 0.932938 976.023 543.675)" stroke="#FF0000" stroke-width="4" stroke-dasharray="8 8"/>
<line y1="-2" x2="611.44" y2="-2" transform="matrix(0.936374 -0.351005 0.27109 0.962554 964.732 509.741)" stroke="#FF0000" stroke-width="4" stroke-dasharray="8 8"/>
<line y1="-2" x2="606.291" y2="-2" transform="matrix(0.971224 -0.238167 0.181192 0.983448 956.578 474.631)" stroke="#FF0000" stroke-width="4" stroke-dasharray="8 8"/>
<line y1="-2" x2="603.088" y2="-2" transform="matrix(0.992728 -0.120376 0.0907272 0.995876 951.649 438.73)" stroke="#FF0000" stroke-width="4" stroke-dasharray="8 8"/>
<line x1="950" y1="400.432" x2="1552" y2="400.432" stroke="#FF0000" stroke-width="4" stroke-dasharray="8 8"/>
<line y1="-2" x2="603.088" y2="-2" transform="matrix(0.992728 0.120376 -0.0907273 0.995876 951.65 366.133)" stroke="#FF0000" stroke-width="4" stroke-dasharray="8 8"/>
<line y1="-2" x2="671.143" y2="-2" transform="matrix(0.943708 0.330781 -0.289945 0.957043 912.275 309.759)" stroke="#E26C6C" stroke-width="4" stroke-dasharray="8 8"/>
<line y1="-2" x2="675.209" y2="-2" transform="matrix(0.899715 0.436477 -0.379851 0.925048 925.208 273.403)" stroke="#E26C6C" stroke-width="4" stroke-dasharray="8 8"/>
<line y1="-2" x2="680.613" y2="-2" transform="matrix(0.844788 0.535101 -0.467309 0.884094 941.47 238.662)" stroke="#E26C6C" stroke-width="4" stroke-dasharray="8 8"/>
<line y1="-2" x2="687.089" y2="-2" transform="matrix(0.780323 0.625377 -0.551647 0.834078 960.881 205.915)" stroke="#E26C6C" stroke-width="4" stroke-dasharray="8 8"/>
<line y1="-2" x2="694.329" y2="-2" transform="matrix(0.707812 0.706401 -0.632068 0.774913 983.229 175.523)" stroke="#E26C6C" stroke-width="4" stroke-dasharray="8 8"/>
<line y1="-2" x2="701.999" y2="-2" transform="matrix(0.628738 0.777617 -0.707631 0.706583 1008.27 147.817)" stroke="#E26C6C" stroke-width="4" stroke-dasharray="8 8"/>
<line y1="-2" x2="709.754" y2="-2" transform="matrix(0.544494 0.838765 -0.77725 0.629192 1035.73 123.102)" stroke="#E26C6C" stroke-width="4" stroke-dasharray="8 8"/>
<line y1="-2" x2="717.259" y2="-2" transform="matrix(0.456329 0.889811 -0.83971 0.543035 1065.3 101.648)" stroke="#E26C6C" stroke-width="4" stroke-dasharray="8 8"/>
<line y1="-2" x2="724.198" y2="-2" transform="matrix(0.365328 0.930879 -0.893704 0.448656 1096.67 83.6897)" stroke="#E26C6C" stroke-width="4" stroke-dasharray="8 8"/>
<line y1="-2" x2="730.288" y2="-2" transform="matrix(0.272405 0.962183 -0.937899 0.34691 1129.49 69.4249)" stroke="#E26C6C" stroke-width="4" stroke-dasharray="8 8"/>
<line y1="-2" x2="735.287" y2="-2" transform="matrix(0.178324 0.983972 -0.971022 0.238991 1163.4 59.0094)" stroke="#E26C6C" stroke-width="4" stroke-dasharray="8 8"/>
<line y1="-2" x2="739" y2="-2" transform="matrix(0.0837177 0.99649 -0.991974 0.126438 1198.02 52.5573)" stroke="#E26C6C" stroke-width="4" stroke-dasharray="8 8"/>
<line y1="-2" x2="741.285" y2="-2" transform="matrix(-0.0108758 0.999941 -0.999938 0.0110946 1232.99 50.1393)" stroke="#E26C6C" stroke-width="4" stroke-dasharray="8 8"/>
<line x1="1269.9" y1="51.9918" x2="1191.99" y2="789.948" stroke="#E26C6C" stroke-width="4" stroke-dasharray="8 8"/>
<line y1="-2" x2="741.285" y2="-2" transform="matrix(-0.198157 0.98017 -0.97558 -0.219642 1302.4 57.4672)" stroke="#E26C6C" stroke-width="4" stroke-dasharray="8 8"/>
<line y1="-2" x2="739" y2="-2" transform="matrix(-0.289945 0.957043 -0.943708 -0.330781 1336.09 67.1327)" stroke="#E26C6C" stroke-width="4" stroke-dasharray="8 8"/>
<line y1="-2" x2="735.287" y2="-2" transform="matrix(-0.379851 0.925048 -0.899715 -0.436477 1368.61 80.6726)" stroke="#E26C6C" stroke-width="4" stroke-dasharray="8 8"/>
<line y1="-2" x2="730.288" y2="-2" transform="matrix(-0.467309 0.884094 -0.844788 -0.535101 1399.59 97.9385)" stroke="#E26C6C" stroke-width="4" stroke-dasharray="8 8"/>
<line y1="-2" x2="724.198" y2="-2" transform="matrix(-0.551647 0.834078 -0.780323 -0.625377 1428.71 118.741)" stroke="#E26C6C" stroke-width="4" stroke-dasharray="8 8"/>
<line y1="-2" x2="717.259" y2="-2" transform="matrix(-0.632068 0.774913 -0.707812 -0.706401 1455.63 142.853)" stroke="#E26C6C" stroke-width="4" stroke-dasharray="8 8"/>
<line y1="-2" x2="709.754" y2="-2" transform="matrix(-0.707631 0.706583 -0.628738 -0.777617 1480.08 170.01)" stroke="#E26C6C" stroke-width="4" stroke-dasharray="8 8"/>
<line y1="-2" x2="701.999" y2="-2" transform="matrix(-0.77725 0.629192 -0.544494 -0.838765 1501.77 199.914)" stroke="#E26C6C" stroke-width="4" stroke-dasharray="8 8"/>
<line y1="-2" x2="694.329" y2="-2" transform="matrix(-0.83971 0.543035 -0.456329 -0.889811 1520.47 232.237)" stroke="#E26C6C" stroke-width="4" stroke-dasharray="8 8"/>
<line y1="-2" x2="687.089" y2="-2" transform="matrix(-0.893704 0.448656 -0.365328 -0.930879 1535.98 266.627)" stroke="#E26C6C" stroke-width="4" stroke-dasharray="8 8"/>
<line y1="-2" x2="680.613" y2="-2" transform="matrix(-0.937899 0.34691 -0.272405 -0.962183 1548.13 302.704)" stroke="#E26C6C" stroke-width="4" stroke-dasharray="8 8"/>
<line y1="-2" x2="675.209" y2="-2" transform="matrix(-0.971022 0.238991 -0.178324 -0.983972 1556.78 340.076)" stroke="#E26C6C" stroke-width="4" stroke-dasharray="8 8"/>
<line y1="-2" x2="671.143" y2="-2" transform="matrix(-0.991974 0.126438 -0.0837177 -0.99649 1561.83 378.331)" stroke="#E26C6C" stroke-width="4" stroke-dasharray="8 8"/>
<line y1="-2" x2="668.618" y2="-2" transform="matrix(-0.999938 0.0110946 0.0108758 -0.999941 1563.24 417.051)" stroke="#E26C6C" stroke-width="4" stroke-dasharray="8 8"/>
<line x1="1560.78" y1="457.801" x2="896.71" y2="387.697" stroke="#E26C6C" stroke-width="4" stroke-dasharray="8 8"/>
<line y1="-2" x2="668.618" y2="-2" transform="matrix(-0.97558 -0.219642 0.198157 -0.98017 1555.1 494.188)" stroke="#E26C6C" stroke-width="4" stroke-dasharray="8 8"/>
<line y1="-2" x2="671.143" y2="-2" transform="matrix(-0.943708 -0.330781 0.289945 -0.957043 1545.64 531.761)" stroke="#E26C6C" stroke-width="4" stroke-dasharray="8 8"/>
<line y1="-2" x2="675.209" y2="-2" transform="matrix(-0.899715 -0.436477 0.379851 -0.925048 1532.7 568.117)" stroke="#E26C6C" stroke-width="4" stroke-dasharray="8 8"/>
<line y1="-2" x2="680.613" y2="-2" transform="matrix(-0.844788 -0.535101 0.467309 -0.884094 1516.44 602.858)" stroke="#E26C6C" stroke-width="4" stroke-dasharray="8 8"/>
<line y1="-2" x2="687.089" y2="-2" transform="matrix(-0.780323 -0.625377 0.551647 -0.834078 1497.03 635.605)" stroke="#E26C6C" stroke-width="4" stroke-dasharray="8 8"/>
<line y1="-2" x2="694.329" y2="-2" transform="matrix(-0.707812 -0.706401 0.632068 -0.774913 1474.68 665.997)" stroke="#E26C6C" stroke-width="4" stroke-dasharray="8 8"/>
<line y1="-2" x2="701.999" y2="-2" transform="matrix(-0.628738 -0.777617 0.707631 -0.706583 1449.64 693.703)" stroke="#E26C6C" stroke-width="4" stroke-dasharray="8 8"/>
<line y1="-2" x2="709.754" y2="-2" transform="matrix(-0.544494 -0.838765 0.77725 -0.629192 1422.18 718.418)" stroke="#E26C6C" stroke-width="4" stroke-dasharray="8 8"/>
<line y1="-2" x2="717.259" y2="-2" transform="matrix(-0.456329 -0.889811 0.83971 -0.543035 1392.61 739.872)" stroke="#E26C6C" stroke-width="4" stroke-dasharray="8 8"/>
<line y1="-2" x2="724.198" y2="-2" transform="matrix(-0.365328 -0.930879 0.893704 -0.448657 1361.24 757.83)" stroke="#E26C6C" stroke-width="4" stroke-dasharray="8 8"/>
<line y1="-2" x2="730.288" y2="-2" transform="matrix(-0.272405 -0.962183 0.937898 -0.34691 1328.42 772.095)" stroke="#E26C6C" stroke-width="4" stroke-dasharray="8 8"/>
<line y1="-2" x2="735.286" y2="-2" transform="matrix(-0.178324 -0.983972 0.971022 -0.238991 1294.52 782.51)" stroke="#E26C6C" stroke-width="4" stroke-dasharray="8 8"/>
<line y1="-2" x2="739" y2="-2" transform="matrix(-0.0837178 -0.99649 0.991974 -0.126438 1259.89 788.963)" stroke="#E26C6C" stroke-width="4" stroke-dasharray="8 8"/>
<line y1="-2" x2="741.285" y2="-2" transform="matrix(0.0108758 -0.999941 0.999938 -0.0110947 1224.92 791.381)" stroke="#E26C6C" stroke-width="4" stroke-dasharray="8 8"/>
<line x1="1188.02" y1="789.528" x2="1265.92" y2="51.5716" stroke="#E26C6C" stroke-width="4" stroke-dasharray="8 8"/>
<line y1="-2" x2="741.285" y2="-2" transform="matrix(0.198157 -0.98017 0.97558 0.219642 1155.51 784.053)" stroke="#E26C6C" stroke-width="4" stroke-dasharray="8 8"/>
<line y1="-2" x2="739" y2="-2" transform="matrix(0.289945 -0.957043 0.943708 0.330781 1121.82 774.387)" stroke="#E26C6C" stroke-width="4" stroke-dasharray="8 8"/>
<line y1="-2" x2="735.287" y2="-2" transform="matrix(0.379851 -0.925048 0.899715 0.436477 1089.31 760.847)" stroke="#E26C6C" stroke-width="4" stroke-dasharray="8 8"/>
<line y1="-2" x2="730.288" y2="-2" transform="matrix(0.467309 -0.884094 0.844788 0.535101 1058.32 743.581)" stroke="#E26C6C" stroke-width="4" stroke-dasharray="8 8"/>
<line y1="-2" x2="724.198" y2="-2" transform="matrix(0.551647 -0.834078 0.780323 0.625377 1029.2 722.779)" stroke="#E26C6C" stroke-width="4" stroke-dasharray="8 8"/>
<line y1="-2" x2="717.259" y2="-2" transform="matrix(0.632068 -0.774913 0.707812 0.706401 1002.28 698.667)" stroke="#E26C6C" stroke-width="4" stroke-dasharray="8 8"/>
<line y1="-2" x2="709.754" y2="-2" transform="matrix(0.707631 -0.706583 0.628739 0.777617 977.834 671.51)" stroke="#E26C6C" stroke-width="4" stroke-dasharray="8 8"/>
<line y1="-2" x2="701.999" y2="-2" transform="matrix(0.77725 -0.629192 0.544494 0.838765 956.141 641.606)" stroke="#E26C6C" stroke-width="4" stroke-dasharray="8 8"/>
<line y1="-2" x2="694.329" y2="-2" transform="matrix(0.83971 -0.543035 0.456329 0.889811 937.438 609.282)" stroke="#E26C6C" stroke-width="4" stroke-dasharray="8 8"/>
<line y1="-2" x2="687.089" y2="-2" transform="matrix(0.893704 -0.448657 0.365328 0.930879 921.929 574.893)" stroke="#E26C6C" stroke-width="4" stroke-dasharray="8 8"/>
<line y1="-2" x2="680.613" y2="-2" transform="matrix(0.937898 -0.34691 0.272405 0.962183 909.783 538.816)" stroke="#E26C6C" stroke-width="4" stroke-dasharray="8 8"/>
<line y1="-2" x2="675.209" y2="-2" transform="matrix(0.971022 -0.238991 0.178324 0.983972 901.134 501.444)" stroke="#E26C6C" stroke-width="4" stroke-dasharray="8 8"/>
<line y1="-2" x2="671.143" y2="-2" transform="matrix(0.991974 -0.126439 0.0837178 0.99649 896.077 463.189)" stroke="#E26C6C" stroke-width="4" stroke-dasharray="8 8"/>
<line y1="-2" x2="668.618" y2="-2" transform="matrix(0.999938 -0.0110947 -0.0108757 0.999941 894.667 424.469)" stroke="#E26C6C" stroke-width="4" stroke-dasharray="8 8"/>
<line x1="897.13" y1="383.719" x2="1561.2" y2="453.823" stroke="#E26C6C" stroke-width="4" stroke-dasharray="8 8"/>
<line y1="-2" x2="668.618" y2="-2" transform="matrix(0.97558 0.219642 -0.198157 0.98017 902.811 347.332)" stroke="#E26C6C" stroke-width="4" stroke-dasharray="8 8"/>
<g filter="url(#filter0_bd_3_15086)">
<ellipse cx="1259.5" cy="435.692" rx="202.5" ry="209" fill="white" fill-opacity="0.56" shape-rendering="crispEdges"/>
</g>
<circle cx="1256" cy="429.692" r="304" transform="rotate(-1.58455 1256 429.692)" stroke="#2AB0EA" stroke-opacity="0.41" stroke-width="7" stroke-dasharray="14 28 42 56"/>
<circle cx="1256" cy="429.692" r="304" transform="rotate(-46.8712 1256 429.692)" stroke="#83BCA4" stroke-width="7" stroke-dasharray="14 28 42 56"/>
<circle cx="1256" cy="429.692" r="304" transform="rotate(24.2553 1256 429.692)" stroke="#FF0000" stroke-width="7" stroke-dasharray="14 28 42 56"/>
<path d="M1454.75 751.857C1460.5 759.561 1458.94 770.506 1450.96 775.866V775.866C1442.98 781.226 1432.26 778.53 1427.3 770.293L1397.9 721.419C1394.18 715.241 1396.19 707.247 1402.18 703.228V703.228C1408.16 699.208 1416.33 700.367 1420.64 706.145L1454.75 751.857Z" fill="#62AA8B"/>
<path d="M1383.59 787.68C1386.78 796.749 1382.02 806.73 1372.8 809.464V809.464C1363.59 812.198 1354.16 806.425 1351.89 797.085L1338.4 741.661C1336.7 734.656 1341.01 727.627 1347.92 725.577V725.577C1354.83 723.526 1362.28 727.068 1364.67 733.87L1383.59 787.68Z" fill="#E18A8A"/>
<path d="M1176.64 799.419C1174.76 808.846 1165.57 815.004 1156.25 812.654V812.654C1146.93 810.304 1141.77 800.529 1144.58 791.336L1161.25 736.788C1163.36 729.894 1170.65 726.046 1177.64 727.809V727.809C1184.63 729.571 1189.23 736.415 1187.82 743.485L1176.64 799.419Z" fill="#E18A8A"/>
<path d="M1073.81 758.051C1069.87 766.823 1059.55 770.784 1050.99 766.42V766.42C1042.42 762.056 1039.56 751.377 1044.35 743.039L1072.74 693.566C1076.32 687.313 1084.29 685.184 1090.71 688.457V688.457C1097.14 691.73 1100.09 699.425 1097.15 706.004L1073.81 758.051Z" fill="#62AA8B"/>
<path d="M988.486 693.673C982.034 700.8 970.994 701.378 964.196 694.581V694.581C957.399 687.783 957.977 676.743 965.104 670.291L1007.39 632.013C1012.74 627.175 1020.97 627.611 1026.07 632.709V632.709C1031.17 637.807 1031.6 646.04 1026.76 651.385L988.486 693.673Z" fill="#E18A8A"/>
<path d="M926.529 593.231C918.191 598.016 907.512 595.154 903.148 586.588V586.588C898.784 578.023 902.745 567.701 911.517 563.768L963.564 540.431C970.143 537.481 977.838 540.44 981.111 546.864V546.864C984.384 553.288 982.255 561.253 976.002 564.841L926.529 593.231Z" fill="#62AA8B"/>
<path d="M889.493 495.986C880.085 497.96 870.813 491.938 869.309 482.444V482.444C867.805 472.949 874.763 464.357 884.32 463.327L941.032 457.215C948.2 456.443 954.604 461.635 955.732 468.756V468.756C956.86 475.877 952.374 482.793 945.317 484.274L889.493 495.986Z" fill="#E18A8A"/>
<path d="M884.32 392.057C874.763 391.027 867.805 382.434 869.309 372.94V372.94C870.813 363.445 880.085 357.423 889.493 359.397L945.317 371.11C952.374 372.59 956.86 379.507 955.732 386.628V386.628C954.604 393.749 948.2 398.94 941.032 398.168L884.32 392.057Z" fill="#62AA8B"/>
<path d="M911.517 291.615C902.745 287.682 898.784 277.36 903.148 268.795V268.795C907.512 260.23 918.191 257.368 926.529 262.152L976.002 290.542C982.255 294.131 984.384 302.095 981.111 308.519V308.519C977.838 314.943 970.143 317.902 963.564 314.952L911.517 291.615Z" fill="#E18A8A"/>
<path d="M954.08 205.231C946.362 199.501 944.717 188.568 950.824 181.144V181.144C956.931 173.72 967.975 173.226 975.087 179.694L1017.28 218.076C1022.61 222.927 1022.98 231.163 1018.4 236.731V236.731C1013.82 242.299 1005.67 243.531 999.877 239.233L954.08 205.231Z" fill="#62AA8B"/>
<path d="M1028.13 129.272C1021.93 121.926 1022.83 110.907 1030.48 105.08V105.08C1038.12 99.2533 1048.99 101.303 1054.43 109.229L1086.7 156.259C1090.78 162.203 1089.25 170.304 1083.51 174.674V174.674C1077.78 179.044 1069.56 178.375 1064.91 172.865L1028.13 129.272Z" fill="#E18A8A"/>
<path d="M1123.92 74.1278C1119.82 65.4307 1123.54 55.0178 1132.43 51.3601V51.3601C1141.32 47.7025 1151.28 52.4854 1154.5 61.5461L1173.55 115.309C1175.96 122.105 1172.39 129.535 1165.72 132.279V132.279C1159.05 135.022 1151.29 132.256 1148.21 125.733L1123.92 74.1278Z" fill="#62AA8B"/>
<path d="M1363.59 67.719C1365.67 58.3329 1374.97 52.3641 1384.24 54.9044V54.9044C1393.51 57.4447 1398.48 67.3235 1395.48 76.457L1377.69 130.652C1375.44 137.502 1368.07 141.199 1361.12 139.294V139.294C1354.17 137.389 1349.71 130.452 1351.27 123.413L1363.59 67.719Z" fill="#E18A8A"/>
<path d="M1238.53 51.2066C1238.41 41.5945 1246.1 33.6593 1255.71 34.0167V34.0167C1265.32 34.3742 1272.4 42.8594 1271.57 52.4361L1266.62 109.261C1265.99 116.443 1259.66 121.724 1252.46 121.456V121.456C1245.25 121.188 1239.33 115.451 1239.24 108.242L1238.53 51.2066Z" fill="#62AA8B"/>
<path d="M1279.61 806.54C1280.52 816.11 1273.49 824.65 1263.89 825.081V825.081C1254.29 825.512 1246.53 817.637 1246.57 808.024L1246.85 750.984C1246.89 743.775 1252.76 737.993 1259.96 737.669V737.669C1267.17 737.346 1273.54 742.578 1274.22 749.756L1279.61 806.54Z" fill="#62AA8B"/>
<circle cx="891" cy="262.692" r="6" fill="#62AA8B"/>
<circle cx="941" cy="170.692" r="6" fill="#E18A8A"/>
<circle cx="1021" cy="96.6917" r="6" fill="#62AA8B"/>
<circle cx="1128" cy="40.6917" r="6" fill="#E18A8A"/>
<circle cx="1256" cy="23.6917" r="6" fill="#62AA8B"/>
<circle cx="1384" cy="43.6917" r="6" fill="#E18A8A"/>
<circle cx="858" cy="370.692" r="6" fill="#E18A8A"/>
<circle cx="860" cy="487.692" r="6" fill="#62AA8B"/>
<circle cx="897" cy="593.692" r="6" fill="#E18A8A"/>
<circle cx="956" cy="704.692" r="6" fill="#62AA8B"/>
<circle cx="1041" cy="779.692" r="6" fill="#E18A8A"/>
<circle cx="1150" cy="824.692" r="6" fill="#62AA8B"/>
<circle cx="1266" cy="840.692" r="6" fill="#E18A8A"/>
<circle cx="1378" cy="823.692" r="6" fill="#62AA8B"/>
<g clip-path="url(#clip0_3_15086)">
<path d="M634.663 394.055C609.484 408.593 600.827 440.904 615.364 466.083C629.89 491.243 662.203 499.925 687.391 485.382C712.49 470.892 721.273 438.613 706.691 413.355C692.154 388.176 659.842 379.519 634.663 394.055ZM682.726 427.191C689.634 439.156 685.52 454.51 673.555 461.418C661.591 468.326 646.236 464.212 639.328 452.247C632.42 440.282 636.534 424.928 648.499 418.02C660.464 411.112 675.818 415.226 682.726 427.191ZM635.264 402.812L641.414 413.464C620.988 428.7 625.1 460.676 648.88 470.142L645.699 482.016C611.395 469.615 605.5 423.557 635.264 402.812ZM653.152 484.013L656.334 472.139C671.33 474.326 685.844 465.95 691.45 451.865L703.324 455.046C695.879 475.643 674.738 487.868 653.152 484.013ZM705.321 447.593L693.447 444.412C697.139 419.09 671.512 399.531 648.096 409.606L641.946 398.954C674.85 383.524 711.724 411.745 705.321 447.593Z" fill="#DE6D6D"/>
<path d="M653.069 441.669L666.695 433.802C668.54 432.736 669.172 430.377 668.107 428.531C667.042 426.686 664.682 426.054 662.837 427.119L649.211 434.986C647.365 436.051 646.733 438.411 647.799 440.256C648.864 442.102 651.224 442.734 653.069 441.669Z" fill="#239944"/>
<path d="M659.218 452.319L672.844 444.452C674.689 443.386 675.321 441.027 674.256 439.181C673.191 437.336 670.831 436.704 668.986 437.769L655.36 445.636C653.514 446.701 652.882 449.061 653.947 450.906C655.013 452.752 657.373 453.384 659.218 452.319Z" fill="#239944"/>
</g>
<path d="M723.432 717.164C721.85 716.053 721.469 713.87 722.58 712.288C723.691 710.706 725.874 710.325 727.455 711.436C729.037 712.547 729.419 714.73 728.308 716.312C727.197 717.893 725.014 718.275 723.432 717.164ZM689.302 723.131C687.72 722.02 687.338 719.837 688.449 718.255C689.56 716.673 691.743 716.292 693.325 717.403C694.907 718.514 695.288 720.697 694.177 722.279C693.066 723.86 690.883 724.242 689.302 723.131ZM692.404 755.25C690.823 754.139 690.441 751.956 691.552 750.374C692.663 748.792 694.846 748.411 696.428 749.522C698.01 750.633 698.391 752.816 697.28 754.397C696.169 755.979 693.986 756.361 692.404 755.25Z" fill="#D8D8D8"/>
<mask id="mask0_3_15086" style="mask-type:luminance" maskUnits="userSpaceOnUse" x="687" y="710" width="42" height="46">
<path d="M723.432 717.164C721.85 716.053 721.469 713.87 722.58 712.288C723.691 710.706 725.874 710.325 727.455 711.436C729.037 712.547 729.419 714.73 728.308 716.312C727.197 717.893 725.014 718.275 723.432 717.164ZM689.302 723.131C687.72 722.02 687.338 719.837 688.449 718.255C689.56 716.673 691.743 716.292 693.325 717.403C694.907 718.514 695.288 720.697 694.177 722.279C693.066 723.86 690.883 724.242 689.302 723.131ZM692.404 755.25C690.823 754.139 690.441 751.956 691.552 750.374C692.663 748.792 694.846 748.411 696.428 749.522C698.01 750.633 698.391 752.816 697.28 754.397C696.169 755.979 693.986 756.361 692.404 755.25Z" fill="#FFA0A0"/>
</mask>
<g mask="url(#mask0_3_15086)">
<path d="M761.279 718.084L692.54 669.804L644.26 738.543L712.999 786.823L761.279 718.084Z" fill="#8590F0" fill-opacity="0.65"/>
</g>
<path d="M682.208 709.628C686.951 705.563 694.014 705.056 699.36 708.811C704.698 712.56 706.619 719.362 704.42 725.196L730.558 743.555C732.14 744.666 732.522 746.849 731.411 748.43C730.3 750.012 728.117 750.394 726.535 749.283L700.397 730.924C695.655 734.972 688.605 735.473 683.266 731.723C677.92 727.968 676.002 721.152 678.216 715.312C678.089 715.245 677.965 715.169 677.845 715.084L674.981 713.073C673.399 711.962 673.017 709.779 674.128 708.197C675.24 706.615 677.422 706.233 679.004 707.344L681.868 709.356C681.989 709.441 682.102 709.531 682.208 709.628ZM685.311 741.746C690.054 737.682 697.117 737.174 702.463 740.929C707.809 744.684 709.728 751.5 707.514 757.341C707.64 757.408 707.764 757.484 707.884 757.568L716.477 763.603C718.058 764.715 718.44 766.897 717.329 768.479C716.218 770.061 714.035 770.443 712.453 769.332L703.861 763.297C703.741 763.212 703.627 763.121 703.521 763.025C698.778 767.09 691.715 767.597 686.369 763.842C681.023 760.087 679.104 753.271 681.319 747.431C681.192 747.364 681.068 747.288 680.948 747.203L660.899 733.122C659.317 732.01 658.936 729.828 660.047 728.246C661.158 726.664 663.341 726.282 664.923 727.393L684.971 741.475C685.092 741.56 685.205 741.65 685.311 741.746ZM716.339 703.661C721.082 699.596 728.144 699.089 733.49 702.843C738.829 706.593 740.75 713.395 738.551 719.229L744.64 723.506C746.222 724.617 746.604 726.8 745.493 728.382C744.382 729.963 742.199 730.345 740.617 729.234L734.528 724.957C729.785 729.005 722.735 729.506 717.397 725.756C712.051 722.001 710.132 715.185 712.346 709.345C712.22 709.278 712.096 709.202 711.976 709.117L689.063 693.024C687.481 691.913 687.099 689.73 688.21 688.148C689.321 686.566 691.504 686.185 693.086 687.296L715.999 703.389C716.119 703.474 716.233 703.564 716.339 703.661ZM721.42 720.028C724.584 722.25 728.95 721.487 731.172 718.323C733.394 715.16 732.631 710.794 729.467 708.572C726.303 706.35 721.938 707.113 719.715 710.277C717.493 713.44 718.257 717.806 721.42 720.028ZM690.393 758.114C693.556 760.336 697.922 759.573 700.144 756.409C702.366 753.246 701.603 748.88 698.439 746.658C695.276 744.436 690.91 745.199 688.688 748.362C686.466 751.526 687.229 755.892 690.393 758.114ZM687.29 725.995C690.453 728.217 694.819 727.454 697.041 724.29C699.263 721.127 698.5 716.761 695.337 714.539C692.173 712.317 687.807 713.08 685.585 716.244C683.363 719.407 684.126 723.773 687.29 725.995Z" fill="#CC9A9A"/>
<mask id="mask1_3_15086" style="mask-type:luminance" maskUnits="userSpaceOnUse" x="659" y="686" width="88" height="84">
<path d="M682.208 709.628C686.951 705.563 694.014 705.056 699.36 708.811C704.698 712.56 706.619 719.362 704.42 725.196L730.558 743.555C732.14 744.666 732.522 746.849 731.411 748.43C730.3 750.012 728.117 750.394 726.535 749.283L700.397 730.924C695.655 734.972 688.605 735.473 683.266 731.723C677.92 727.968 676.002 721.152 678.216 715.312C678.089 715.245 677.965 715.169 677.845 715.084L674.981 713.073C673.399 711.962 673.017 709.779 674.128 708.197C675.24 706.615 677.422 706.233 679.004 707.344L681.868 709.356C681.989 709.441 682.102 709.531 682.208 709.628ZM685.311 741.746C690.054 737.682 697.117 737.174 702.463 740.929C707.809 744.684 709.728 751.5 707.514 757.341C707.64 757.408 707.764 757.484 707.884 757.568L716.477 763.603C718.058 764.715 718.44 766.897 717.329 768.479C716.218 770.061 714.035 770.443 712.453 769.332L703.861 763.297C703.741 763.212 703.627 763.121 703.521 763.025C698.778 767.09 691.715 767.597 686.369 763.842C681.023 760.087 679.104 753.271 681.319 747.431C681.192 747.364 681.068 747.288 680.948 747.203L660.899 733.122C659.317 732.01 658.936 729.828 660.047 728.246C661.158 726.664 663.341 726.282 664.923 727.393L684.971 741.475C685.092 741.56 685.205 741.65 685.311 741.746ZM716.339 703.661C721.082 699.596 728.144 699.089 733.49 702.843C738.829 706.593 740.75 713.395 738.551 719.229L744.64 723.506C746.222 724.617 746.604 726.8 745.493 728.382C744.382 729.963 742.199 730.345 740.617 729.234L734.528 724.957C729.785 729.005 722.735 729.506 717.397 725.756C712.051 722.001 710.132 715.185 712.346 709.345C712.22 709.278 712.096 709.202 711.976 709.117L689.063 693.024C687.481 691.913 687.099 689.73 688.21 688.148C689.321 686.566 691.504 686.185 693.086 687.296L715.999 703.389C716.119 703.474 716.233 703.564 716.339 703.661ZM721.42 720.028C724.584 722.25 728.95 721.487 731.172 718.323C733.394 715.16 732.631 710.794 729.467 708.572C726.303 706.35 721.938 707.113 719.715 710.277C717.493 713.44 718.257 717.806 721.42 720.028ZM690.393 758.114C693.556 760.336 697.922 759.573 700.144 756.409C702.366 753.246 701.603 748.88 698.439 746.658C695.276 744.436 690.91 745.199 688.688 748.362C686.466 751.526 687.229 755.892 690.393 758.114ZM687.29 725.995C690.453 728.217 694.819 727.454 697.041 724.29C699.263 721.127 698.5 716.761 695.337 714.539C692.173 712.317 687.807 713.08 685.585 716.244C683.363 719.407 684.126 723.773 687.29 725.995Z" fill="#7600FF"/>
</mask>
<g mask="url(#mask1_3_15086)">
<path d="M761.279 718.084L692.54 669.804L644.26 738.543L712.999 786.823L761.279 718.084Z" fill="#3BAE39"/>
</g>
<path d="M504.032 352.724L517.916 350.618L526.066 404.356L512.181 406.462L504.032 352.724ZM488.236 373.444L502.12 371.338L507.553 407.164L493.669 409.269L488.236 373.444ZM468.365 367.295L482.249 365.189L489.04 409.971L475.156 412.077L468.365 367.295ZM453.248 392.493L467.132 390.388L470.528 412.779L456.643 414.884L453.248 392.493ZM433.377 386.344L447.261 384.239L452.015 415.586L438.131 417.692L433.377 386.344Z" fill="#00BCD4"/>
<path d="M1159.54 439.192C1159.54 393.183 1195.46 355.412 1240.73 352.431V375.97C1208.42 378.896 1183.01 406.131 1183.01 439.192C1183.01 474.198 1211.49 502.678 1246.5 502.678C1262.1 502.678 1276.39 497.022 1287.46 487.658L1304.13 504.244C1288.78 517.864 1268.59 526.149 1246.5 526.149C1198.55 526.149 1159.54 487.14 1159.54 439.192ZM1333.23 433.008L1337.5 424.192C1334.57 393.974 1337.5 409.192 1322 387.248L1252.27 352.431C1273 375.97 1322 457.192 1333.23 433.008ZM1246.5 387.248C1275.14 387.248 1298.44 410.55 1298.44 439.192C1298.44 467.833 1275.14 491.135 1246.5 491.135C1217.86 491.135 1194.56 467.833 1194.56 439.192C1194.56 410.55 1217.86 387.248 1246.5 387.248ZM1312.25 496.037L1295.56 479.439C1303.51 469.773 1308.65 457.728 1309.76 444.551H1333.29C1332.09 464.167 1324.36 482.048 1312.25 496.037ZM1246.5 340.692C1192.19 340.692 1148 384.879 1148 439.192C1148 493.505 1192.19 537.692 1246.5 537.692C1300.81 537.692 1345 493.505 1345 439.192C1345 384.879 1300.81 340.692 1246.5 340.692Z" fill="#62AA8B"/>
<path d="M1246.5 411.762C1261.4 411.762 1273.52 423.882 1273.52 438.78C1273.52 453.678 1261.4 465.798 1246.5 465.798C1231.6 465.798 1219.48 453.678 1219.48 438.78C1219.48 423.882 1231.6 411.762 1246.5 411.762ZM1246.5 477.341C1267.76 477.341 1285.06 460.042 1285.06 438.78C1285.06 417.517 1267.76 400.219 1246.5 400.219C1225.24 400.219 1207.94 417.517 1207.94 438.78C1207.94 460.042 1225.24 477.341 1246.5 477.341Z" fill="#FF0000"/>
<path d="M437.471 364.935C441.294 364.355 443.923 360.786 443.344 356.963C442.764 353.14 439.195 350.511 435.372 351.091C431.549 351.67 428.919 355.24 429.499 359.063C430.079 362.886 433.648 365.515 437.471 364.935Z" fill="#3F51B5"/>
<path d="M456.63 366.751C460.453 366.171 463.082 362.602 462.503 358.779C461.923 354.956 458.354 352.326 454.531 352.906C450.708 353.486 448.078 357.055 448.658 360.878C449.238 364.701 452.807 367.33 456.63 366.751Z" fill="#3F51B5"/>
<path d="M472.64 347.799C476.463 347.22 479.092 343.65 478.512 339.827C477.933 336.004 474.363 333.375 470.54 333.955C466.717 334.535 464.088 338.104 464.668 341.927C465.248 345.75 468.817 348.379 472.64 347.799Z" fill="#3F51B5"/>
<path d="M491.799 349.615C495.622 349.035 498.251 345.466 497.672 341.643C497.092 337.82 493.523 335.191 489.7 335.77C485.877 336.35 483.247 339.919 483.827 343.742C484.407 347.565 487.976 350.195 491.799 349.615Z" fill="#3F51B5"/>
<path d="M508.858 337.586C512.681 337.006 515.311 333.437 514.731 329.614C514.151 325.791 510.582 323.162 506.759 323.741C502.936 324.321 500.307 327.89 500.886 331.713C501.466 335.536 505.035 338.166 508.858 337.586Z" fill="#3F51B5"/>
<path d="M510.515 334.502L505.102 326.825L489.553 337.917L469.667 335.976L453.657 354.927L436.91 353.454L435.933 362.572L457.504 364.73L473.514 345.778L491.946 347.468L510.515 334.502Z" fill="#3F51B5"/>
<path d="M331.062 587.692H239.625C235.216 587.692 230.987 589.451 227.869 592.583C224.752 595.715 223 599.963 223 604.392V737.992C223 742.421 224.752 746.668 227.869 749.8C230.987 752.932 235.216 754.692 239.625 754.692H339.375C343.784 754.692 348.013 752.932 351.131 749.8C354.248 746.668 356 742.421 356 737.992V604.392C356 598.129 352.758 587.692 331.062 587.692Z" fill="black"/>
<path d="M289.25 679.442C289.25 677.254 290.129 675.155 291.695 673.608C293.261 672.061 295.385 671.192 297.6 671.192H322.65C324.864 671.192 326.988 672.061 328.554 673.608C330.12 675.155 331 677.254 331 679.442C331 681.63 330.12 683.728 328.554 685.275C326.988 686.822 324.864 687.692 322.65 687.692H297.6C295.385 687.692 293.261 686.822 291.695 685.275C290.129 683.728 289.25 681.63 289.25 679.442ZM239.149 621.692C233.289 621.698 227.534 623.227 222.461 626.125C217.388 629.024 213.177 633.191 210.249 638.206C207.322 643.222 205.781 648.91 205.783 654.7C205.784 660.49 207.328 666.178 210.258 671.192L191.47 689.672C190.687 690.439 190.066 691.351 189.642 692.356C189.218 693.362 189 694.44 189 695.529C189 696.618 189.218 697.697 189.642 698.702C190.066 699.707 190.687 700.62 191.47 701.387C192.246 702.16 193.17 702.774 194.187 703.193C195.205 703.611 196.296 703.827 197.399 703.827C198.501 703.827 199.592 703.611 200.61 703.193C201.627 702.774 202.551 702.16 203.327 701.387L221.948 682.989C226.361 685.605 231.326 687.178 236.455 687.586C241.585 687.993 246.74 687.224 251.52 685.338C256.299 683.452 260.572 680.501 264.006 676.714C267.441 672.928 269.943 668.408 271.318 663.508C272.693 658.609 272.903 653.461 271.933 648.468C270.962 643.475 268.837 638.771 265.723 634.723C262.609 630.675 258.59 627.393 253.981 625.132C249.371 622.872 244.295 621.694 239.149 621.692ZM322.65 704.192H264.199C261.985 704.192 259.861 705.061 258.295 706.608C256.729 708.155 255.849 710.254 255.849 712.442C255.849 714.63 256.729 716.728 258.295 718.275C259.861 719.822 261.985 720.692 264.199 720.692H322.65C324.864 720.692 326.988 719.822 328.554 718.275C330.12 716.728 331 714.63 331 712.442C331 710.254 330.12 708.155 328.554 706.608C326.988 705.061 324.864 704.192 322.65 704.192Z" fill="#2CA9BC"/>
<path d="M539.918 690.015C538.934 690.015 538.128 689.209 538.128 688.225V673.816C538.128 672.832 538.934 672.026 539.918 672.026C540.903 672.026 541.708 672.832 541.708 673.816V688.225C541.708 689.209 540.903 690.015 539.918 690.015ZM533.475 704.692H520.498C519.514 704.692 518.708 703.886 518.708 702.902C518.708 701.917 519.514 701.112 520.498 701.112H533.475C534.459 701.112 535.265 701.917 535.265 702.902C535.265 703.886 534.459 704.692 533.475 704.692ZM559.07 704.692H546.093C545.109 704.692 544.303 703.886 544.303 702.902C544.303 701.917 545.109 701.112 546.093 701.112H559.07C560.054 701.112 560.86 701.917 560.86 702.902C560.86 703.886 560.054 704.692 559.07 704.692Z" fill="#131313"/>
<path d="M525.152 704.334C524.704 704.334 524.257 704.155 523.899 703.797C523.183 703.081 523.183 702.007 523.899 701.291L538.665 686.524C539.381 685.808 540.455 685.808 541.171 686.524L555.938 701.291C556.654 702.007 556.654 703.081 555.938 703.797C555.222 704.513 554.148 704.513 553.432 703.797L539.918 690.283L526.405 703.797C526.047 704.155 525.599 704.334 525.152 704.334Z" fill="#131313"/>
<path d="M487.296 591.482H592.899C594.331 591.482 595.405 592.645 595.405 593.987V671.221C595.405 672.653 594.241 673.727 592.899 673.727H487.296C485.953 673.816 484.79 672.653 484.79 671.31V593.987C484.79 592.645 485.953 591.482 487.296 591.482Z" fill="#7CB0F1"/>
<path d="M592.899 675.606H487.296C484.969 675.606 483 673.637 483 671.31V593.987C483 591.661 484.969 589.692 487.296 589.692H592.899C595.315 589.692 597.195 591.661 597.195 593.987V671.221C597.284 673.637 595.315 675.606 592.899 675.606ZM487.296 593.271C486.938 593.271 486.58 593.629 486.58 593.987V671.221C486.58 671.668 486.938 672.026 487.296 672.026H592.899C593.346 672.026 593.615 671.668 593.615 671.31V593.987C593.615 593.54 593.257 593.271 592.899 593.271H487.296Z" fill="#131313"/>
<path d="M491.323 598.373H588.603V667.015H491.323V598.373Z" fill="#EBF4FF"/>
<path d="M588.603 668.715H491.323C490.339 668.715 489.533 667.91 489.533 666.925V598.373C489.533 597.388 490.339 596.583 491.323 596.583H588.603C589.588 596.583 590.393 597.388 590.393 598.373V667.015C590.393 667.91 589.588 668.715 588.603 668.715ZM493.113 665.135H586.813V600.162H493.113V665.135Z" fill="#131313"/>
<path d="M581.444 654.307H563.366C562.381 654.307 561.576 653.501 561.576 652.517C561.576 651.532 562.381 650.727 563.366 650.727H581.444C582.428 650.727 583.233 651.532 583.233 652.517C583.233 653.501 582.428 654.307 581.444 654.307ZM570.078 662.003H563.366C562.381 662.003 561.576 661.198 561.576 660.213C561.576 659.229 562.381 658.423 563.366 658.423H570.078C571.062 658.423 571.868 659.229 571.868 660.213C571.868 661.198 571.062 662.003 570.078 662.003ZM535.981 650.369C535.533 650.369 535.086 650.19 534.728 649.832L510.654 625.847C509.938 625.131 509.938 624.058 510.654 623.342C511.37 622.626 512.444 622.626 513.16 623.342L537.144 647.326C537.86 648.042 537.86 649.116 537.144 649.832C536.875 650.279 536.428 650.369 535.981 650.369ZM539.918 650.1C539.65 650.1 539.292 650.011 539.023 649.832C538.128 649.384 537.86 648.221 538.307 647.415L556.385 615.377C556.833 614.482 557.996 614.213 558.802 614.661C559.696 615.108 559.965 616.272 559.518 617.077L541.529 649.205C541.171 649.742 540.545 650.1 539.918 650.1Z" fill="#131313"/>
<path d="M514.86 653.591C514.412 653.591 513.965 653.412 513.607 653.054C512.891 652.338 512.891 651.174 513.607 650.548L536.339 628.353C537.054 627.637 538.218 627.637 538.844 628.353C539.56 629.069 539.56 630.233 538.844 630.859L516.113 653.054C515.755 653.412 515.307 653.591 514.86 653.591ZM566.946 629.159H543.23C542.245 629.159 541.44 628.353 541.44 627.369C541.44 626.384 542.245 625.579 543.23 625.579H566.856C567.84 625.579 568.646 626.384 568.646 627.369C568.646 628.353 567.93 629.159 566.946 629.159Z" fill="#131313"/>
<path d="M506.179 622.357C506.179 623.235 506.528 624.078 507.149 624.699C507.77 625.32 508.612 625.668 509.49 625.668C510.368 625.668 511.211 625.32 511.832 624.699C512.453 624.078 512.802 623.235 512.802 622.357C512.802 621.479 512.453 620.637 511.832 620.016C511.211 619.395 510.368 619.046 509.49 619.046C508.612 619.046 507.77 619.395 507.149 620.016C506.528 620.637 506.179 621.479 506.179 622.357Z" fill="#EBF4FF"/>
<path d="M509.49 627.458C506.716 627.458 504.389 625.221 504.389 622.357C504.389 619.583 506.626 617.256 509.49 617.256C512.265 617.256 514.591 619.493 514.591 622.357C514.591 625.221 512.354 627.458 509.49 627.458ZM509.49 620.925C508.685 620.925 507.969 621.552 507.969 622.447C507.969 623.252 508.595 623.968 509.49 623.968C510.296 623.968 511.012 623.342 511.012 622.447C511.012 621.552 510.385 620.925 509.49 620.925Z" fill="#131313"/>
<path d="M534.817 650.995C534.817 651.43 534.903 651.861 535.069 652.262C535.236 652.664 535.479 653.029 535.787 653.337C536.094 653.644 536.459 653.888 536.861 654.054C537.263 654.221 537.694 654.306 538.128 654.306C538.563 654.306 538.994 654.221 539.396 654.054C539.797 653.888 540.162 653.644 540.47 653.337C540.777 653.029 541.021 652.664 541.188 652.262C541.354 651.861 541.44 651.43 541.44 650.995C541.44 650.56 541.354 650.13 541.188 649.728C541.021 649.326 540.777 648.961 540.47 648.654C540.162 648.346 539.797 648.102 539.396 647.936C538.994 647.769 538.563 647.684 538.128 647.684C537.694 647.684 537.263 647.769 536.861 647.936C536.459 648.102 536.094 648.346 535.787 648.654C535.479 648.961 535.236 649.326 535.069 649.728C534.903 650.13 534.817 650.56 534.817 650.995Z" fill="#EBF4FF"/>
<path d="M538.128 656.096C535.354 656.096 533.027 653.859 533.027 650.995C533.027 648.131 535.265 645.894 538.128 645.894C540.903 645.894 543.23 648.131 543.23 650.995C543.23 653.859 540.992 656.096 538.128 656.096ZM538.128 649.563C537.323 649.563 536.607 650.19 536.607 651.085C536.607 651.98 537.233 652.606 538.128 652.606C538.934 652.606 539.65 651.98 539.65 651.085C539.65 650.19 539.023 649.563 538.128 649.563Z" fill="#131313"/>
<path d="M536.696 627.279C536.696 628.157 537.045 629 537.666 629.62C538.287 630.241 539.13 630.59 540.008 630.59C540.886 630.59 541.728 630.241 542.349 629.62C542.97 629 543.319 628.157 543.319 627.279C543.319 626.401 542.97 625.559 542.349 624.938C541.728 624.317 540.886 623.968 540.008 623.968C539.13 623.968 538.287 624.317 537.666 624.938C537.045 625.559 536.696 626.401 536.696 627.279Z" fill="#EBF4FF"/>
<path d="M540.008 632.38C537.233 632.38 534.907 630.143 534.907 627.279C534.907 624.505 537.144 622.178 540.008 622.178C542.872 622.178 545.109 624.415 545.109 627.279C545.019 630.143 542.782 632.38 540.008 632.38ZM540.008 625.847C539.202 625.847 538.486 626.474 538.486 627.369C538.486 628.174 539.113 628.89 540.008 628.89C540.903 628.89 541.529 628.264 541.529 627.369C541.44 626.474 540.813 625.847 540.008 625.847Z" fill="#131313"/>
<path d="M566.767 627.279C566.767 628.157 567.115 629 567.736 629.62C568.357 630.241 569.2 630.59 570.078 630.59C570.956 630.59 571.798 630.241 572.419 629.62C573.04 629 573.389 628.157 573.389 627.279C573.389 626.401 573.04 625.559 572.419 624.938C571.798 624.317 570.956 623.968 570.078 623.968C569.2 623.968 568.357 624.317 567.736 624.938C567.115 625.559 566.767 626.401 566.767 627.279Z" fill="#EBF4FF"/>
<path d="M570.078 632.38C567.303 632.38 564.977 630.143 564.977 627.279C564.977 624.505 567.214 622.178 570.078 622.178C572.942 622.178 575.179 624.415 575.179 627.279C575.179 630.143 572.942 632.38 570.078 632.38ZM570.078 625.847C569.272 625.847 568.556 626.474 568.556 627.369C568.556 628.174 569.183 628.89 570.078 628.89C570.973 628.89 571.599 628.174 571.599 627.369C571.599 626.474 570.883 625.847 570.078 625.847Z" fill="#131313"/>
<path d="M556.027 612.96C556.027 613.838 556.376 614.681 556.997 615.302C557.618 615.923 558.46 616.271 559.339 616.271C560.217 616.271 561.059 615.923 561.68 615.302C562.301 614.681 562.65 613.838 562.65 612.96C562.65 612.082 562.301 611.24 561.68 610.619C561.059 609.998 560.217 609.649 559.339 609.649C558.46 609.649 557.618 609.998 556.997 610.619C556.376 611.24 556.027 612.082 556.027 612.96Z" fill="#EBF4FF"/>
<path d="M559.339 618.061C556.564 618.061 554.237 615.824 554.237 612.96C554.237 610.096 556.475 607.859 559.339 607.859C562.202 607.859 564.44 610.186 564.44 612.96C564.44 615.735 562.202 618.061 559.339 618.061ZM559.339 611.528C558.533 611.528 557.817 612.155 557.817 613.05C557.817 613.945 558.444 614.571 559.339 614.571C560.233 614.571 560.86 613.855 560.86 612.96C560.86 612.065 560.233 611.528 559.339 611.528Z" fill="#131313"/>
<path d="M509.49 654.306C509.49 655.185 509.839 656.027 510.46 656.648C511.081 657.269 511.923 657.618 512.802 657.618C513.68 657.618 514.522 657.269 515.143 656.648C515.764 656.027 516.113 655.185 516.113 654.306C516.113 653.428 515.764 652.586 515.143 651.965C514.522 651.344 513.68 650.995 512.802 650.995C511.923 650.995 511.081 651.344 510.46 651.965C509.839 652.586 509.49 653.428 509.49 654.306Z" fill="#EBF4FF"/>
<path d="M512.802 659.408C510.027 659.408 507.7 657.17 507.7 654.306C507.7 651.532 509.938 649.205 512.802 649.205C515.665 649.205 517.903 651.443 517.903 654.306C517.903 657.081 515.576 659.408 512.802 659.408ZM512.802 652.875C511.996 652.875 511.28 653.501 511.28 654.396C511.28 655.291 511.907 655.917 512.802 655.917C513.697 655.917 514.323 655.291 514.323 654.396C514.323 653.501 513.607 652.875 512.802 652.875Z" fill="#131313"/>
<path d="M525.852 176.916H351.956C348.114 176.916 345 173.755 345 169.855V42.7529C345 38.8531 348.114 35.6917 351.956 35.6917H525.852C529.693 35.6917 532.808 38.8527 532.808 42.7529V169.855C532.808 173.755 529.694 176.916 525.852 176.916Z" fill="#707487"/>
<path d="M345 155.733V169.855C345 173.755 348.115 176.917 351.956 176.917H421.128L418.036 205.162H459.771L456.68 176.917H525.852C529.693 176.917 532.808 173.755 532.808 169.855V155.733H345Z" fill="#5B5D6E"/>
<path d="M515.418 159.264H362.39C360.469 159.264 358.912 157.683 358.912 155.733V53.345C358.912 51.3953 360.469 49.8146 362.39 49.8146H515.418C517.338 49.8146 518.896 51.3953 518.896 53.345V155.733C518.896 157.683 517.339 159.264 515.418 159.264Z" fill="white"/>
<path d="M498.028 74.5286L459.771 116.896V159.263H498.028V74.5286Z" fill="#F1F3C5"/>
<path d="M418.036 95.7126L456.293 116.896V159.264H418.036V95.7126Z" fill="#FFF3C9"/>
<path d="M418.036 95.7126L379.779 134.549V159.264H418.036V95.7126Z" fill="#FFDED3"/>
<path d="M383.257 134.549H376.301V159.263H383.257V134.549Z" fill="#D5DCED"/>
<path d="M462.088 113.365H455.133V159.263H462.088V113.365Z" fill="#D5DCED"/>
<path d="M422.675 95.7124H415.719V159.264H422.675V95.7124Z" fill="#D5DCED"/>
<path d="M501.507 78.0591H494.551V159.263H501.507V78.0591Z" fill="#D5DCED"/>
<path d="M473.683 208.692H404.125C402.202 208.692 400.647 207.112 400.647 205.161C400.647 203.21 402.202 201.631 404.125 201.631H473.683C475.606 201.631 477.161 203.21 477.161 205.161C477.161 207.112 475.606 208.692 473.683 208.692Z" fill="#707487"/>
<path d="M379.779 138.08C378.873 138.08 377.965 137.721 377.283 137.007C375.945 135.607 375.979 133.373 377.358 132.015L416.773 93.1779C417.857 92.1054 419.497 91.8783 420.822 92.5918L457.901 112.517L495.502 72.1044C496.816 70.6871 499.017 70.622 500.416 71.9632C501.812 73.3008 501.877 75.5354 500.555 76.9526L461.14 119.32C460.07 120.475 458.369 120.761 456.987 120.016L419.803 100.032L382.201 137.083C381.525 137.749 380.652 138.08 379.779 138.08Z" fill="#AFB9D2"/>
<path d="M456.68 176.916H421.128L420.355 183.977H457.453L456.68 176.916Z" fill="#464655"/>
<path d="M376.301 148.172C377.419 148.466 378.571 148.671 379.779 148.671C380.987 148.671 382.139 148.466 383.257 148.172V134.549H376.301V148.172Z" fill="#C7CFE2"/>
<path d="M494.55 88.1517C495.668 88.4455 496.82 88.6507 498.028 88.6507C499.236 88.6507 500.388 88.4455 501.506 88.1517V74.5286H494.55V88.1517H494.55Z" fill="#C7CFE2"/>
<path d="M455.134 130.519C456.252 130.813 457.404 131.018 458.612 131.018C459.82 131.018 460.972 130.813 462.09 130.519V116.896H455.134V130.519Z" fill="#C7CFE2"/>
<path d="M415.718 109.335C416.836 109.629 417.988 109.834 419.196 109.834C420.404 109.834 421.556 109.629 422.673 109.335V95.7123H415.718V109.335H415.718Z" fill="#C7CFE2"/>
<path d="M379.779 143.376C384.581 143.376 388.474 139.424 388.474 134.549C388.474 129.674 384.581 125.722 379.779 125.722C374.977 125.722 371.084 129.674 371.084 134.549C371.084 139.424 374.977 143.376 379.779 143.376Z" fill="#FF507D"/>
<path d="M498.028 83.3554C502.83 83.3554 506.723 79.4036 506.723 74.5288C506.723 69.654 502.83 65.7021 498.028 65.7021C493.226 65.7021 489.333 69.654 489.333 74.5288C489.333 79.4036 493.226 83.3554 498.028 83.3554Z" fill="#B4E66E"/>
<path d="M458.61 125.723C463.412 125.723 467.305 121.771 467.305 116.896C467.305 112.021 463.412 108.07 458.61 108.07C453.808 108.07 449.915 112.021 449.915 116.896C449.915 121.771 453.808 125.723 458.61 125.723Z" fill="#FFDC64"/>
<path d="M419.197 104.539C423.999 104.539 427.892 100.587 427.892 95.7121C427.892 90.8373 423.999 86.8855 419.197 86.8855C414.395 86.8855 410.502 90.8373 410.502 95.7121C410.502 100.587 414.395 104.539 419.197 104.539Z" fill="#FF8C66"/>
<path d="M11.47 261.759C10.2173 261.759 9.18109 260.745 9.18109 259.492C9.18109 258.239 10.1725 257.226 11.4212 257.226H11.47C12.0711 257.226 12.6475 257.465 13.0725 257.89C13.4976 258.315 13.7365 258.891 13.7368 259.492C13.7365 260.093 13.4975 260.67 13.0725 261.095C12.6474 261.52 12.071 261.759 11.47 261.759ZM20.5372 261.759C19.2844 261.759 18.2483 260.745 18.2483 259.492C18.2483 258.239 19.2397 257.226 20.4884 257.226H20.5372C21.1383 257.226 21.7146 257.465 22.1397 257.89C22.5647 258.315 22.8036 258.891 22.8039 259.492C22.8033 260.093 22.5643 260.67 22.1393 261.094C21.7143 261.519 21.1381 261.758 20.5372 261.759ZM29.6038 261.759C28.351 261.759 27.3149 260.745 27.3149 259.492C27.3149 258.239 28.3063 257.226 29.555 257.226H29.6038C30.2049 257.226 30.7812 257.465 31.2063 257.89C31.6313 258.315 31.8702 258.891 31.8705 259.492C31.8699 260.093 31.6309 260.67 31.2059 261.094C30.7809 261.519 30.2047 261.758 29.6038 261.759Z" fill="#5FA1A6"/>
<path d="M287.867 266.292H2.26679C1.96907 266.292 1.67424 266.233 1.39915 266.12C1.12406 266.006 0.874116 265.839 0.663596 265.628C0.453075 265.418 0.28611 265.168 0.172246 264.893C0.0583819 264.618 -0.000148726 264.323 2.83801e-07 264.025V259.492C2.83801e-07 255.742 3.05016 252.692 6.79981 252.692H283.333C287.083 252.692 290.133 255.742 290.133 259.492V264.025C290.133 264.323 290.074 264.617 289.961 264.893C289.847 265.168 289.68 265.418 289.469 265.628C289.259 265.839 289.009 266.006 288.734 266.119C288.459 266.233 288.164 266.292 287.867 266.292ZM4.53302 261.758H285.599V259.492C285.599 258.263 284.563 257.225 283.333 257.225H6.79981C6.19885 257.226 5.62271 257.465 5.19777 257.89C4.77283 258.315 4.53377 258.891 4.53302 259.492V261.758Z" fill="#5FA1A6"/>
<path d="M287.867 456.692H2.26679C1.96907 456.692 1.67424 456.633 1.39915 456.519C1.12406 456.406 0.874116 456.239 0.663596 456.028C0.453075 455.817 0.28611 455.568 0.172246 455.292C0.0583819 455.017 -0.000148726 454.723 2.83801e-07 454.425V264.025C-0.000148726 263.727 0.0583819 263.433 0.172246 263.158C0.28611 262.882 0.453075 262.632 0.663596 262.422C0.874116 262.211 1.12406 262.044 1.39915 261.931C1.67424 261.817 1.96907 261.758 2.26679 261.758H287.867C288.164 261.758 288.459 261.817 288.734 261.931C289.009 262.045 289.259 262.212 289.469 262.422C289.68 262.633 289.847 262.883 289.961 263.158C290.074 263.433 290.133 263.727 290.133 264.025V454.425C290.133 454.723 290.074 455.017 289.961 455.292C289.847 455.567 289.68 455.817 289.469 456.028C289.259 456.238 289.009 456.405 288.734 456.519C288.459 456.633 288.164 456.692 287.867 456.692ZM4.53302 452.158H285.599V266.292H4.53302V452.158Z" fill="#5FA1A6"/>
<path d="M15.8662 420.425C15.5685 420.425 15.2737 420.367 14.9986 420.253C14.7235 420.139 14.4735 419.972 14.263 419.762C14.0525 419.551 13.8855 419.301 13.7717 419.026C13.6578 418.751 13.5993 418.456 13.5994 418.158V277.625C13.5993 277.328 13.6578 277.033 13.7717 276.758C13.8855 276.483 14.0525 276.233 14.263 276.022C14.4735 275.812 14.7235 275.645 14.9986 275.531C15.2737 275.417 15.5685 275.358 15.8662 275.358C16.1639 275.358 16.4588 275.417 16.7339 275.531C17.0089 275.645 17.2589 275.812 17.4694 276.022C17.6799 276.233 17.8469 276.483 17.9608 276.758C18.0746 277.033 18.1332 277.328 18.133 277.625V418.158C18.1332 418.456 18.0746 418.751 17.9608 419.026C17.8469 419.301 17.6799 419.551 17.4694 419.762C17.2589 419.972 17.0089 420.139 16.7339 420.253C16.4588 420.367 16.1639 420.425 15.8662 420.425Z" fill="#5FA1A6"/>
<path d="M274.266 420.425H15.8662C14.6135 420.425 13.5994 419.411 13.5994 418.158C13.5994 416.906 14.6135 415.891 15.8662 415.891H274.266C275.519 415.891 276.533 416.906 276.533 418.158C276.533 419.411 275.519 420.425 274.266 420.425ZM224.399 434.025H65.7328C65.4351 434.025 65.1402 433.966 64.8652 433.852C64.5901 433.739 64.3401 433.572 64.1296 433.361C63.9191 433.151 63.7521 432.901 63.6382 432.625C63.5244 432.35 63.4658 432.056 63.466 431.758C63.4658 431.46 63.5244 431.165 63.6382 430.89C63.7521 430.615 63.9191 430.365 64.1296 430.155C64.3401 429.944 64.5901 429.777 64.8652 429.663C65.1402 429.549 65.4351 429.491 65.7328 429.491H224.399C224.697 429.491 224.992 429.549 225.267 429.663C225.542 429.777 225.792 429.944 226.002 430.155C226.213 430.365 226.379 430.615 226.493 430.89C226.607 431.165 226.666 431.46 226.665 431.758C226.666 432.056 226.607 432.35 226.493 432.626C226.38 432.901 226.213 433.151 226.002 433.361C225.792 433.572 225.542 433.739 225.267 433.853C224.992 433.966 224.697 434.025 224.399 434.025ZM183.599 443.091H106.533C106.235 443.091 105.94 443.033 105.665 442.919C105.39 442.805 105.14 442.638 104.93 442.428C104.719 442.217 104.552 441.967 104.438 441.692C104.324 441.417 104.266 441.122 104.266 440.824C104.266 440.527 104.324 440.232 104.438 439.957C104.552 439.682 104.719 439.432 104.93 439.221C105.14 439.011 105.39 438.844 105.665 438.73C105.94 438.616 106.235 438.558 106.533 438.558H183.599C184.852 438.558 185.867 439.572 185.867 440.824C185.867 441.122 185.808 441.417 185.694 441.692C185.58 441.967 185.413 442.217 185.203 442.428C184.992 442.638 184.742 442.805 184.467 442.919C184.192 443.033 183.897 443.091 183.599 443.091ZM269.733 302.558C265.984 302.558 262.932 299.508 262.932 295.758C262.932 292.009 265.984 288.958 269.733 288.958C273.483 288.958 276.533 292.009 276.533 295.758C276.533 299.508 273.483 302.558 269.733 302.558ZM269.733 293.492C268.484 293.492 267.466 294.507 267.466 295.758C267.467 296.359 267.706 296.935 268.131 297.36C268.556 297.785 269.132 298.024 269.733 298.025C270.334 298.024 270.91 297.785 271.335 297.36C271.759 296.935 271.999 296.359 271.999 295.758C271.999 295.157 271.76 294.581 271.335 294.156C270.91 293.732 270.334 293.492 269.733 293.492ZM197.2 379.624C193.45 379.624 190.4 376.574 190.4 372.825C190.4 369.075 193.45 366.025 197.2 366.025C200.95 366.025 204 369.075 204 372.825C204 376.574 200.95 379.624 197.2 379.624ZM197.2 370.558C195.951 370.558 194.933 371.576 194.933 372.825C194.933 374.073 195.951 375.091 197.2 375.091C198.447 375.091 199.466 374.073 199.466 372.825C199.466 371.576 198.447 370.558 197.2 370.558ZM111.066 338.825C107.317 338.825 104.266 335.774 104.266 332.025C104.266 328.276 107.316 325.225 111.066 325.225C114.816 325.225 117.867 328.276 117.867 332.025C117.866 335.774 114.815 338.825 111.066 338.825ZM111.066 329.758C110.465 329.759 109.889 329.998 109.464 330.423C109.039 330.848 108.8 331.424 108.8 332.025C108.8 333.276 109.818 334.291 111.066 334.291C112.315 334.291 113.333 333.276 113.333 332.025C113.332 331.424 113.093 330.848 112.668 330.423C112.243 329.998 111.667 329.759 111.066 329.758Z" fill="#5FA1A6"/>
<path d="M33.9996 393.225C30.25 393.225 27.1998 390.174 27.1998 386.424C27.1998 382.675 30.25 379.625 33.9996 379.625C37.7493 379.625 40.7994 382.675 40.7994 386.424C40.7994 390.174 37.7493 393.225 33.9996 393.225ZM33.9996 384.158C33.3989 384.159 32.8231 384.398 32.3983 384.823C31.9735 385.248 31.7342 385.824 31.7328 386.424C31.734 387.025 31.9732 387.601 32.3981 388.026C32.8229 388.451 33.3988 388.69 33.9996 388.691C34.6005 388.69 35.1765 388.451 35.6013 388.026C36.0262 387.601 36.2654 387.025 36.2664 386.424C36.2652 385.824 36.026 385.248 35.6011 384.823C35.1763 384.398 34.6004 384.159 33.9996 384.158Z" fill="#5FA1A6"/>
<path d="M37.1518 385.54C36.7659 385.54 36.3864 385.441 36.0499 385.252C35.7895 385.107 35.5603 384.912 35.3753 384.679C35.1903 384.445 35.0532 384.178 34.9718 383.891C34.8904 383.604 34.8663 383.305 34.9009 383.009C34.9356 382.713 35.0282 382.427 35.1735 382.167C36.3645 380.028 64.8793 329.759 106.534 329.759C106.831 329.759 107.126 329.817 107.401 329.931C107.676 330.045 107.926 330.212 108.137 330.422C108.347 330.633 108.514 330.882 108.628 331.158C108.742 331.433 108.8 331.727 108.8 332.025C108.8 332.323 108.742 332.618 108.628 332.893C108.514 333.168 108.347 333.418 108.137 333.628C107.926 333.839 107.676 334.006 107.401 334.12C107.126 334.233 106.831 334.292 106.534 334.292C67.5174 334.292 39.4101 383.876 39.1312 384.38C38.9344 384.732 38.6472 385.025 38.2992 385.229C37.9512 385.433 37.5551 385.54 37.1518 385.54Z" fill="#5FA1A6"/>
<path d="M192.719 374.756C172.369 374.756 159.631 362.865 148.395 352.37C138.439 343.073 129.036 334.292 115.6 334.292C115.302 334.292 115.007 334.233 114.732 334.12C114.457 334.006 114.207 333.839 113.996 333.628C113.786 333.418 113.619 333.168 113.505 332.893C113.391 332.618 113.333 332.323 113.333 332.025C113.333 331.727 113.391 331.433 113.505 331.158C113.619 330.882 113.786 330.633 113.996 330.422C114.207 330.212 114.457 330.045 114.732 329.931C115.007 329.817 115.302 329.759 115.6 329.759C130.824 329.759 140.86 339.133 151.49 349.056C162.633 359.465 174.156 370.223 192.719 370.223C193.017 370.222 193.312 370.281 193.587 370.395C193.862 370.509 194.112 370.675 194.322 370.886C194.533 371.096 194.7 371.346 194.813 371.621C194.927 371.896 194.986 372.191 194.985 372.489C194.986 372.787 194.927 373.081 194.813 373.356C194.7 373.632 194.533 373.882 194.322 374.092C194.112 374.303 193.862 374.47 193.587 374.583C193.312 374.697 193.017 374.756 192.719 374.756Z" fill="#5FA1A6"/>
<path d="M201.056 372.732C200.552 372.733 200.063 372.565 199.665 372.257C199.267 371.948 198.983 371.515 198.859 371.027C198.785 370.739 198.769 370.439 198.811 370.144C198.853 369.849 198.953 369.566 199.105 369.31C199.257 369.053 199.457 368.83 199.696 368.651C199.934 368.473 200.205 368.343 200.493 368.269C234.005 359.689 256.194 336.565 266.438 299.536C266.766 298.33 268.01 297.627 269.228 297.956C269.515 298.036 269.783 298.171 270.017 298.354C270.252 298.538 270.448 298.765 270.594 299.024C270.74 299.283 270.834 299.569 270.87 299.864C270.906 300.159 270.883 300.459 270.803 300.745C260.099 339.453 236.822 363.648 201.617 372.661C201.433 372.708 201.245 372.732 201.056 372.732Z" fill="#5FA1A6"/>
<path d="M856.307 186.373C858.426 185.955 859.486 185.746 860.215 185.178C860.857 184.679 861.323 183.992 861.546 183.216C861.801 182.333 861.594 181.285 861.181 179.188L845.822 101.296C845.408 99.1991 845.202 98.1506 844.631 97.4306C844.13 96.7973 843.438 96.3385 842.655 96.1202C841.764 95.8717 840.705 96.0807 838.585 96.4986L820.419 100.081C818.3 100.498 817.24 100.707 816.511 101.275C815.869 101.774 815.403 102.462 815.179 103.238C814.925 104.121 815.132 105.169 815.545 107.266L819.089 125.241C819.503 127.338 819.71 128.387 819.455 129.269C819.232 130.046 818.765 130.733 818.124 131.232C817.394 131.8 816.335 132.009 814.215 132.427L796.049 136.009C793.93 136.427 792.87 136.636 792.141 137.203C791.499 137.703 791.033 138.39 790.81 139.166C790.555 140.049 790.762 141.097 791.175 143.194L794.72 161.169C795.133 163.266 795.34 164.315 795.085 165.198C794.862 165.974 794.396 166.661 793.754 167.16C793.025 167.728 791.965 167.937 789.846 168.355L771.679 171.937C769.56 172.355 768.5 172.564 767.771 173.132C767.129 173.631 766.663 174.318 766.44 175.094C766.185 175.977 766.392 177.025 766.806 179.123L770.35 197.097C770.763 199.195 770.97 200.243 771.541 200.963C772.042 201.596 772.734 202.055 773.517 202.273C774.408 202.522 775.467 202.313 777.587 201.895L856.307 186.373Z" stroke="#9BDDEC" stroke-width="6" stroke-linecap="round" stroke-linejoin="round"/>
<path d="M770.282 90.2411C769.873 88.1661 769.668 87.1287 769.929 86.2539C770.158 85.4846 770.631 84.8024 771.281 84.3053C772.02 83.7401 773.09 83.529 775.232 83.1067L793.589 79.487C795.731 79.0647 796.802 78.8535 797.7 79.096C798.49 79.3092 799.187 79.7606 799.691 80.3855C800.264 81.0959 800.468 82.1333 800.877 84.2083L804.384 101.992C804.793 104.067 804.998 105.104 804.737 105.979C804.508 106.749 804.035 107.431 803.385 107.928C802.646 108.493 801.575 108.704 799.434 109.126L781.076 112.746C778.935 113.168 777.864 113.38 776.966 113.137C776.176 112.924 775.479 112.473 774.975 111.848C774.402 111.137 774.198 110.1 773.788 108.025L770.282 90.2411Z" stroke="#9BDDEC" stroke-width="6" stroke-linecap="round" stroke-linejoin="round"/>
<path d="M733.082 139.365C732.673 137.291 732.469 136.253 732.716 135.381C732.934 134.614 733.389 133.935 734.016 133.443C734.729 132.882 735.766 132.678 737.841 132.269L755.625 128.762C757.7 128.353 758.738 128.148 759.61 128.396C760.377 128.613 761.055 129.069 761.548 129.696C762.108 130.409 762.313 131.446 762.722 133.521L766.228 151.305C766.638 153.38 766.842 154.417 766.595 155.29C766.377 156.057 765.922 156.735 765.295 157.228C764.582 157.788 763.544 157.992 761.469 158.402L743.686 161.908C741.611 162.317 740.573 162.522 739.701 162.274C738.934 162.057 738.255 161.602 737.763 160.975C737.203 160.261 736.998 159.224 736.589 157.149L733.082 139.365Z" stroke="#9BDDEC" stroke-width="6" stroke-linecap="round" stroke-linejoin="round"/>
<path d="M716.207 84.7942C715.784 82.6522 715.573 81.5813 715.829 80.681C716.053 79.8891 716.523 79.1887 717.17 78.6802C717.906 78.102 718.977 77.8908 721.119 77.4685L739.476 73.8488C741.618 73.4265 742.689 73.2153 743.59 73.4708C744.382 73.6956 745.082 74.1653 745.59 74.8126C746.169 75.5485 746.38 76.6194 746.802 78.7614L750.422 97.1187C750.844 99.2606 751.055 100.332 750.8 101.232C750.575 102.024 750.105 102.724 749.458 103.233C748.722 103.811 747.651 104.022 745.509 104.444L727.152 108.064C725.01 108.486 723.939 108.698 723.039 108.442C722.247 108.217 721.546 107.748 721.038 107.1C720.46 106.364 720.249 105.293 719.826 103.152L716.207 84.7942Z" stroke="#9BDDEC" stroke-width="6" stroke-linecap="round" stroke-linejoin="round"/>
<g filter="url(#filter1_d_3_15086)">
<circle cx="1239.5" cy="434.192" r="127.5" stroke="#C7C7E8" stroke-width="8" stroke-linecap="round" stroke-linejoin="bevel" stroke-dasharray="16 32 48 64" shape-rendering="crispEdges"/>
</g>
<g filter="url(#filter2_d_3_15086)">
<path d="M1077.5 558.692C1109.9 573.492 1124 647.192 1158.5 628.692C1184.5 628.692 1169.84 552.659 1243 612.692C1262.5 628.692 1233.5 621.692 1326 660.692C1418.5 699.692 1370.5 619.692 1342.5 579.192C1314.5 538.692 1313 525.192 1370.5 542.192C1428 559.192 1316.5 408.692 1385 464.192C1453.5 519.692 1429.5 405.192 1385 386.692C1340.5 368.192 1342.5 343.692 1370.5 312.692C1398.5 281.692 1448.5 375.192 1415.5 301.192C1382.5 227.192 1350 268.192 1290.5 268.192C1231 268.192 1272 260.692 1233.5 223.692C1195 186.692 1193 170.192 1191 212.692C1189 255.192 1204 244.692 1151.5 273.192C1107.57 297.037 1164.06 296.015 1103.5 312.692C1069 322.192 1081.17 367.025 1077.5 386.692C1049.83 399.525 1008.2 432.992 1063 464.192C1131.5 503.192 1037 540.192 1077.5 558.692Z" stroke="#FF0000" stroke-width="3" stroke-linecap="round" stroke-dasharray="4 8 12 16"/>
</g>
<g filter="url(#filter3_d_3_15086)">
<path d="M1123 612.192C1044.5 606.912 1114.82 560.712 1082.42 545.912C1041.92 527.412 1136.42 490.412 1067.92 451.412C1013.12 420.212 1054.76 386.745 1082.42 373.912C1086.09 354.245 1162.3 327.692 1113.5 315.692C1052.5 300.692 1110.94 384.736 1128 342.192C1164.5 251.192 1236.68 295.525 1222.5 255.412C1200.5 193.192 1244.45 273.445 1262.5 223.192C1281 171.692 1330.13 358.747 1339 299.912C1352 213.692 1354.08 424.753 1382 348.692C1396.5 309.192 1474 342.912 1446 373.912C1418 404.912 1406.5 402.192 1451 420.692C1495.5 439.192 1458.42 506.912 1389.92 451.412C1321.42 395.912 1432.92 546.412 1375.42 529.412C1317.92 512.412 1401.5 510.692 1429.5 551.192C1457.5 591.692 1321.08 497.692 1329.5 572.692C1340.7 672.45 1262.5 558.192 1215.92 606.912C1150.52 675.322 1187.58 591.692 1123 612.192Z" stroke="#1CABE8" stroke-width="3" stroke-linecap="round" stroke-dasharray="4 8 12 16"/>
</g>
<g filter="url(#filter4_d_3_15086)">
<path d="M1182.42 580.692C1107 628.192 1157.4 561.992 1125 547.192C1084.5 528.692 1150.5 511.192 1082 472.192C1027.2 440.992 1038.33 431.025 1066 418.192C1091.42 394.692 1039 332.472 1071 347.192C1128.07 373.443 1085 281.692 1129.5 292.692C1174 303.692 1180.42 302.912 1182.42 260.412C1184.42 217.912 1208.92 206.912 1247.42 243.912C1285.92 280.912 1244.92 288.412 1304.42 288.412C1363.92 288.412 1336 214.412 1369 288.412C1402 362.412 1412.42 301.912 1384.42 332.912C1356.42 363.912 1354.42 388.412 1398.92 406.912C1443.42 425.412 1543 522.692 1474.5 467.192C1406 411.692 1480.5 520.692 1423 503.692C1365.5 486.692 1455 645.192 1375.5 570.192C1311.32 509.645 1404.3 694.271 1346.5 612.192C1300.58 546.972 1304.42 562.412 1272 580.692C1189.56 627.171 1208.42 580.692 1182.42 580.692Z" stroke="#4B9E7B" stroke-width="3" stroke-linecap="round" stroke-dasharray="4 8 12 16"/>
</g>
<defs>
<filter id="filter0_bd_3_15086" x="1014" y="183.692" width="491" height="504" filterUnits="userSpaceOnUse" color-interpolation-filters="sRGB">
<feFlood flood-opacity="0" result="BackgroundImageFix"/>
<feGaussianBlur in="BackgroundImageFix" stdDeviation="21.5"/>
<feComposite in2="SourceAlpha" operator="in" result="effect1_backgroundBlur_3_15086"/>
<feColorMatrix in="SourceAlpha" type="matrix" values="0 0 0 0 0 0 0 0 0 0 0 0 0 0 0 0 0 0 127 0" result="hardAlpha"/>
<feOffset dy="4"/>
<feGaussianBlur stdDeviation="2"/>
<feComposite in2="hardAlpha" operator="out"/>
<feColorMatrix type="matrix" values="0 0 0 0 0 0 0 0 0 0 0 0 0 0 0 0 0 0 0.25 0"/>
<feBlend mode="normal" in2="effect1_backgroundBlur_3_15086" result="effect2_dropShadow_3_15086"/>
<feBlend mode="normal" in="SourceGraphic" in2="effect2_dropShadow_3_15086" result="shape"/>
</filter>
<filter id="filter1_d_3_15086" x="1104" y="302.692" width="271" height="271" filterUnits="userSpaceOnUse" color-interpolation-filters="sRGB">
<feFlood flood-opacity="0" result="BackgroundImageFix"/>
<feColorMatrix in="SourceAlpha" type="matrix" values="0 0 0 0 0 0 0 0 0 0 0 0 0 0 0 0 0 0 127 0" result="hardAlpha"/>
<feOffset dy="4"/>
<feGaussianBlur stdDeviation="2"/>
<feComposite in2="hardAlpha" operator="out"/>
<feColorMatrix type="matrix" values="0 0 0 0 0 0 0 0 0 0 0 0 0 0 0 0 0 0 0.25 0"/>
<feBlend mode="normal" in2="BackgroundImageFix" result="effect1_dropShadow_3_15086"/>
<feBlend mode="normal" in="SourceGraphic" in2="effect1_dropShadow_3_15086" result="shape"/>
</filter>
<filter id="filter2_d_3_15086" x="1033.66" y="189.567" width="402.683" height="495.056" filterUnits="userSpaceOnUse" color-interpolation-filters="sRGB">
<feFlood flood-opacity="0" result="BackgroundImageFix"/>
<feColorMatrix in="SourceAlpha" type="matrix" values="0 0 0 0 0 0 0 0 0 0 0 0 0 0 0 0 0 0 127 0" result="hardAlpha"/>
<feOffset dx="3" dy="8"/>
<feGaussianBlur stdDeviation="2"/>
<feColorMatrix type="matrix" values="0 0 0 0 0 0 0 0 0 0 0 0 0 0 0 0 0 0 0.07 0"/>
<feBlend mode="normal" in2="BackgroundImageFix" result="effect1_dropShadow_3_15086"/>
<feBlend mode="normal" in="SourceGraphic" in2="effect1_dropShadow_3_15086" result="shape"/>
</filter>
<filter id="filter3_d_3_15086" x="1038.58" y="212.614" width="438.752" height="435.218" filterUnits="userSpaceOnUse" color-interpolation-filters="sRGB">
<feFlood flood-opacity="0" result="BackgroundImageFix"/>
<feColorMatrix in="SourceAlpha" type="matrix" values="0 0 0 0 0 0 0 0 0 0 0 0 0 0 0 0 0 0 127 0" result="hardAlpha"/>
<feOffset dx="3" dy="8"/>
<feGaussianBlur stdDeviation="2"/>
<feColorMatrix type="matrix" values="0 0 0 0 0 0 0 0 0 0 0 0 0 0 0 0 0 0 0.07 0"/>
<feBlend mode="normal" in2="BackgroundImageFix" result="effect1_dropShadow_3_15086"/>
<feBlend mode="normal" in="SourceGraphic" in2="effect1_dropShadow_3_15086" result="shape"/>
</filter>
<filter id="filter4_d_3_15086" x="1040.55" y="219.968" width="465.817" height="427.138" filterUnits="userSpaceOnUse" color-interpolation-filters="sRGB">
<feFlood flood-opacity="0" result="BackgroundImageFix"/>
<feColorMatrix in="SourceAlpha" type="matrix" values="0 0 0 0 0 0 0 0 0 0 0 0 0 0 0 0 0 0 127 0" result="hardAlpha"/>
<feOffset dx="3" dy="8"/>
<feGaussianBlur stdDeviation="2"/>
<feColorMatrix type="matrix" values="0 0 0 0 0 0 0 0 0 0 0 0 0 0 0 0 0 0 0.07 0"/>
<feBlend mode="normal" in2="BackgroundImageFix" result="effect1_dropShadow_3_15086"/>
<feBlend mode="normal" in="SourceGraphic" in2="effect1_dropShadow_3_15086" result="shape"/>
</filter>
<clipPath id="clip0_3_15086">
<rect width="105.455" height="105.455" fill="white" transform="translate(589 420.419) rotate(-30)"/>
</clipPath>
</defs>
</svg>
